Music_RayShadeOpening1:
; OCT 2 2019
	channel_count 1
	channel 1, Music_RayShadeOpening1_Ch1
	channel 2, Music_RayShadeOpening1_Ch2
	channel 3, Music_RayShadeOpening1_Ch3

Music_RayShadeOpening1_Ch1:
	tempo 160
	volume 7, 7
	pitch_inc_switch
	duty_cycle 3
	note_type 12, 8, 7
.loop1:
	rest 8
	octave 3
	note F_, 16
	note E_, 16
	note G_, 4
	note F_, 4
	note E_, 8
	note G_, 8
	sound_loop 2, .loop1
	rest 8
	octave 2
	note A#, 4
	octave 3
	note D_, 4
	note E_, 8
	octave 2
	note A#, 8
	octave 3
	note C_, 4
	note F_, 4
	note D_, 6
	note F_, 2
	note G_, 2
	note D_, 2
	note F_, 2
	note G_, 2
	note E_, 6
	note D_, 2
	tempo 168
	rest 8
	tempo 176
	rest 4
	tempo 181
	rest 4
	tempo 192
	note_type 6, 11, 7
	note G_, 1
	octave 4
	note C_, 1
	note_type 12, 11, 7
	note C_, 10
	sound_ret

Music_RayShadeOpening1_Ch2:
	duty_cycle 3
.loop1:
	note_type 6, 10, 6
	octave 2
	note F_, 4
	octave 3
	note C_, 4
	note F_, 4
	note G_, 4
	volume_envelope 10, 7
	octave 4
	note C_, 16
	volume_envelope 10, 6
	octave 2
	note E_, 4
	octave 3
	note C_, 4
	note E_, 4
	note G_, 4
	volume_envelope 10, 7
	octave 4
	note C_, 16
	volume_envelope 10, 6
	octave 2
	note D_, 4
	note A_, 4
	octave 3
	note D_, 4
	note F_, 4
	volume_envelope 10, 7
	octave 4
	note D_, 16
	volume_envelope 10, 6
	octave 2
	note C_, 4
	note G_, 4
	octave 3
	note C_, 4
	note E_, 4
	volume_envelope 10, 7
	octave 4
	note C_, 16
	sound_loop 2, .loop1
	volume_envelope 10, 6
	octave 1
	note A#, 4
	octave 2
	note F_, 4
	note A#, 4
	octave 3
	note C_, 4
	note D_, 8
	note F_, 8
	octave 2
	note C_, 4
	note G_, 4
	octave 3
	note C_, 4
	note F_, 4
	note G_, 16
	octave 1
	note A_, 4
	octave 2
	note F_, 4
	note A_, 4
	octave 3
	note C_, 4
	octave 1
	note A#, 4
	octave 2
	note F_, 4
	note A#, 4
	octave 3
	note D_, 4
	octave 1
	note B_, 4
	octave 2
	note G_, 4
	note B_, 4
	octave 3
	note D_, 4
	octave 2
	note C_, 4
	note G_, 4
	octave 3
	note C_, 4
	note E_, 4
	octave 1
	note A_, 4
	octave 2
	note A_, 4
	octave 3
	note C#, 4
	note E_, 4
	octave 1
	note A#, 4
	octave 2
	note A#, 4
	octave 3
	note F_, 4
	note A#, 3
	note C_, 1
	note_type 12, 13, 7
	octave 2
	note C_, 11
	sound_ret

Music_RayShadeOpening1_Ch3:
	note_type 12, 1, 4
	rest 16
	rest 16
	rest 16
	rest 12
	vibrato 19, 2, 4
	octave 4
	note F_, 2
	note G_, 2
	note A_, 10
	note F_, 2
	note A_, 2
	note A#, 2
	note G_, 12
	note A_, 2
	note A#, 2
	octave 5
	note C_, 6
	octave 4
	note A#, 2
	note A_, 2
	note A#, 2
	octave 5
	note C_, 2
	note D_, 2
	note C_, 12
	octave 4
	note F_, 4
	octave 5
	note D_, 12
	octave 4
	note A#, 2
	note A_, 2
	note G_, 10
	note C_, 2
	note F_, 2
	note G_, 2
	note A_, 8
	note G_, 4
	note F_, 2
	note G_, 2
	note A_, 6
	note A#, 2
	octave 5
	note C_, 6
	octave 4
	note A#, 2
	note A_, 4
	note G_, 4
	note F_, 4
	note E_, 2
	note D_, 2
	note E_, 8
	rest 3
	sound_ret
