Music_StaffRoll:
; SEP 5 2019
	channel_count 4
	channel 1, Music_StaffRoll_Ch1
	channel 2, Music_StaffRoll_Ch2
	channel 3, Music_StaffRoll_Ch3
	channel 4, Music_StaffRoll_Ch4

Music_StaffRoll_Ch1:
	tempo 153
	volume 7, 7
	vibrato 8, 2, 2
	sound_call .sub1
	volume_envelope 10, 7
	note D_, 2
	rest 2
	octave 3
	note D_, 2
	rest 6
	note D_, 1
	rest 1
	note D_, 1
	rest 1
	note D_, 2
	rest 2
	note D_, 2
	rest 10
	note D_, 2
	rest 2
	note D_, 2
	rest 6
	note D_, 1
	rest 1
	note D_, 1
	rest 1
	note D_, 2
	rest 2
	note D_, 2
	rest 2
	note D#, 8
	sound_call .sub2
	note A#, 16
	octave 4
	note C#, 1
	note D_, 7
	note C_, 4
	octave 3
	note A#, 4
	note A_, 16
	note F_, 8
	note G_, 4
	note D#, 4
	note F_, 12
	note A#, 4
	note A_, 4
	note G_, 4
	note F_, 4
	note G_, 4
	note_type 12, 10, 7
	note A_, 16
	note_type 6, 10, 7
	note F_, 16
	note A#, 8
	note F_, 4
	note G_, 4
	note A_, 16
	octave 4
	note C_, 8
	octave 3
	note F_, 2
	note A_, 2
	octave 4
	note C_, 2
	note D#, 2
	note D_, 12
	note C_, 4
	octave 3
	note A#, 8
	note G_, 8
	note A_, 12
	note F_, 1
	note A_, 1
	octave 4
	note C_, 1
	note D_, 1
	note F_, 8
	octave 3
	note A_, 8
	sound_call .sub3
	note D_, 16
	note F_, 8
	note D#, 8
	note D_, 12
	duty_cycle 2
	volume_envelope 7, -4
	note F_, 4
	note D_, 4
	note D#, 4
	note F_, 4
	note A_, 4
	sound_call .sub4
	sound_call .sub5
	sound_call .sub4
	note D_, 8
	note F_, 4
	note A#, 12
	octave 4
	note D_, 5
	octave 3
	note F_, 1
	note A#, 1
	octave 4
	note D_, 1
	note F_, 12
	octave 3
	note A#, 12
	note A_, 8
	sound_call .sub4
	sound_call .sub5
	sound_call .sub6
	sound_call .sub1
	tempo 155
	duty_cycle 3
	volume_envelope 10, 7
	octave 3
	note B_, 8
	rest 4
	note B_, 1
	rest 1
	note B_, 1
	rest 1
	tempo 160
	octave 4
	note C_, 8
	rest 4
	note C_, 1
	rest 1
	note C_, 1
	rest 1
	tempo 165
	note D_, 8
	rest 4
	note D_, 1
	rest 1
	note D_, 1
	rest 1
	octave 3
	note D_, 2
	note G_, 2
	note B_, 2
	octave 4
	note D_, 2
	tempo 153
	volume_envelope 4, -4
	note F_, 8
	transpose 0, 2
	sound_call .sub2
	sound_call .sub3
	tempo 155
	note D_, 16
	tempo 160
	note F_, 8
	note D#, 8
	tempo 165
	note D_, 12
	duty_cycle 2
	volume_envelope 7, -4
	note F_, 4
	note D_, 4
	note D#, 4
	tempo 153
	note F_, 4
	note A_, 4
	sound_call .sub4
	sound_call .sub5
	sound_call .sub6
	transpose 0, 0
	tempo 155
	duty_cycle 3
	volume_envelope 10, 7
	octave 3
	note B_, 8
	rest 4
	note B_, 1
	rest 1
	note B_, 1
	rest 1
	tempo 160
	octave 4
	note C_, 8
	rest 4
	note C_, 1
	rest 1
	note C_, 1
	rest 1
	tempo 165
	note D_, 8
	rest 4
	note D_, 1
	rest 1
	note D_, 1
	rest 1
	octave 3
	note D_, 2
	note G_, 2
	note B_, 2
	octave 4
	note D_, 2
	volume_envelope 4, -4
	note F_, 8
	tempo 168
	volume_envelope 3, -4
	note E_, 8
	note D_, 8
	note C_, 8
	volume_envelope 5, -4
	note D_, 4
	note C_, 4
	volume_envelope 3, -4
	octave 3
	note B_, 12
	duty_cycle 2
	volume_envelope 10, 5
	octave 4
	note F_, 2
	note E_, 2
	note D_, 2
	octave 3
	note G_, 2
	note B_, 2
	octave 4
	note D_, 2
	note G_, 2
	octave 3
	note B_, 2
	octave 4
	note C_, 2
	octave 3
	note B_, 2
	volume_envelope 10, 0
	note A_, 8
	volume_envelope 10, 7
	note A_, 8
	note G_, 8
	note D_, 8
	note C_, 8
	note G_, 8
	note E_, 8
	note D_, 2
	note G_, 2
	note B_, 2
	octave 4
	note D_, 2
	note E_, 12
	note C_, 1
	rest 1
	note C_, 1
	rest 1
	note C_, 2
	rest 2
	note C_, 2
	rest 2
	note C_, 2
	note D_, 2
	note E_, 2
	note G_, 2
	note F_, 12
	note D_, 1
	rest 1
	note D_, 1
	rest 1
	note D_, 2
	rest 2
	note D_, 2
	rest 2
	note D_, 2
	note E_, 2
	note F_, 2
	note D_, 2
	note E_, 12
	note E_, 2
	note G_, 2
	note E_, 2
	rest 2
	note E_, 2
	rest 2
	note_type 8, 10, 7
	note E_, 1
	rest 1
	note E_, 1
	rest 1
	note D#, 1
	rest 1
	note_type 6, 10, 7
	note D_, 2
	rest 6
	octave 3
	note A#, 2
	rest 6
	note_type 8, 10, 7
.loop1:
	octave 4
	note D_, 1
	rest 1
	sound_loop 5, .loop1
	note D#, 1
	rest 1
	note_type 6, 10, 7
	note E_, 3
	rest 13
	note_type 12, 10, 7
	octave 3
	note E_, 12
	sound_ret

.sub1:
	duty_cycle 3
	note_type 6, 10, 7
	octave 3
	note A_, 8
	rest 4
	note A_, 1
	rest 1
	note A_, 1
	rest 1
	note A#, 8
	rest 4
	note A#, 1
	rest 1
	note A#, 1
	rest 1
	octave 4
	note C_, 8
	rest 4
	note C_, 1
	rest 1
	note C_, 1
	rest 1
	octave 3
	note C_, 2
	note F_, 2
	note A_, 2
	octave 4
	note C_, 2
	volume_envelope 4, -4
	note D#, 8
	sound_ret

.sub2:
	volume_envelope 10, 7
	octave 3
	note F_, 16
	note A#, 8
	note F_, 4
	note G_, 4
	note F_, 16
	note C_, 8
	note D#, 2
	note F_, 2
	note G_, 2
	note A_, 2
	note A#, 12
	octave 4
	note C_, 4
	octave 3
	note A#, 4
	note G_, 4
	note A_, 4
	note G_, 4
	note A_, 8
	note F_, 8
	octave 4
	note C_, 8
	octave 3
	note A#, 8
	sound_ret

.sub3:
	note A#, 8
	octave 4
	note D_, 8
	note C_, 8
	octave 3
	note A#, 8
	note A_, 12
	note G_, 4
	note F_, 4
	note D#, 4
	note F_, 4
	note D#, 4
	sound_ret

.sub4:
	volume_envelope 10, 7
	note A#, 12
	note A_, 4
	note A#, 4
	note A_, 4
	note G_, 4
	note A#, 4
	note A_, 12
	note F_, 4
	octave 4
	note C_, 8
	octave 3
	note F_, 4
	note D#, 4
	sound_ret

.sub5:
	note F_, 8
	note A#, 4
	octave 4
	note D_, 8
	octave 3
	note A#, 4
	octave 4
	note C_, 4
	note D_, 12
	note C_, 4
	octave 3
	note A#, 12
	note A_, 8
	sound_ret

.sub6:
	note G_, 12
	note F_, 4
	note D#, 8
	note A#, 4
	note A_, 4
	note G_, 4
	octave 4
	note C_, 8
	octave 3
	note E_, 12
	note G_, 8
	sound_ret

Music_StaffRoll_Ch2:
	duty_cycle 3
	vibrato 18, 4, 4
	note_type 6, 13, 7
	sound_call .sub2
	note A#, 2
	rest 2
	octave 1
	note A#, 2
	rest 6
	note A#, 1
	rest 1
	note A#, 1
	rest 1
	note A#, 2
	rest 2
	note A#, 2
	rest 10
	note A#, 2
	rest 2
	note A#, 2
	rest 6
	note A#, 1
	rest 1
	note A#, 1
	rest 1
	note A#, 2
	rest 2
	note A#, 2
	rest 2
	octave 2
	note F_, 8
	sound_call .sub3
	rest 6
	note F_, 6
	rest 6
	note F_, 1
	rest 1
	note F_, 1
	rest 1
	note F_, 2
	rest 2
	note F_, 2
	rest 2
	note G_, 1
	note A_, 5
	rest 2
	sound_call .sub3
	sound_call .sub6
	sound_call .sub4
	sound_call .sub7
	octave 1
	note A#, 1
	rest 1
	note A#, 1
	rest 1
	octave 2
	note D#, 2
	rest 2
	note D#, 2
	rest 2
	note F#, 1
	note G_, 3
	note D#, 4
	note F_, 6
	rest 6
	note F_, 1
	rest 1
	note F_, 1
	rest 1
	octave 1
	note F_, 2
	rest 2
	note G_, 2
	rest 2
	note A_, 4
	note F_, 2
	rest 2
	sound_call .sub5
	sound_call .sub6
	sound_call .sub4
	sound_call .sub7
	sound_call .sub1
	transpose 0, 2
	sound_call .sub2
	sound_call .sub3
	sound_call .sub6
	sound_call .sub4
	sound_call .sub7
	sound_call .sub1
	transpose 0, 0
	note C_, 2
	rest 2
	note C_, 2
	rest 6
	note C_, 1
	rest 1
	note C_, 1
	rest 1
	note C_, 2
	rest 2
	note C_, 6
	rest 6
	note D#, 1
	note E_, 5
	rest 6
	note E_, 1
	rest 1
	note E_, 1
	rest 1
	note E_, 2
	rest 2
	note E_, 2
	rest 2
	octave 1
	note B_, 6
	rest 2
	octave 2
	note D_, 8
	rest 4
	note D_, 1
	rest 1
	note D_, 1
	rest 1
	note E_, 2
	rest 2
	note E_, 6
	rest 2
	note E_, 2
	rest 2
	note F_, 8
	rest 4
	note F_, 1
	rest 1
	note F_, 1
	rest 1
	note G_, 2
	rest 2
	note A#, 1
	note B_, 5
	rest 2
	octave 3
	note D_, 2
	rest 2
	note C_, 12
	note E_, 4
	note G_, 16
	note D_, 12
	note F_, 4
	note A#, 12
	note A_, 2
	note G#, 2
	note G_, 16
	octave 2
	note G_, 2
	rest 2
	note G_, 2
	rest 2
	note_type 8, 13, 7
	note G_, 1
	rest 1
	note G_, 1
	rest 1
	note F#, 1
	rest 1
	note_type 6, 13, 7
	note F_, 2
	rest 6
	note D_, 2
	rest 6
	note_type 8, 13, 7
.loop1:
	note A#, 1
	rest 1
	sound_loop 5, .loop1
	note B_, 1
	rest 1
	note_type 6, 13, 7
	octave 3
	note C_, 3
	rest 13
	note_type 12, 13, 7
	octave 2
	note C_, 12
	sound_ret

.sub1:
	note D#, 1
	rest 1
	note D#, 1
	rest 1
	note D#, 2
	rest 2
	note D#, 6
	rest 2
	octave 1
	note G_, 4
	octave 2
	note C_, 6
	rest 6
	note C_, 1
	rest 1
	note C_, 1
	rest 1
	note C_, 2
	rest 2
	note C_, 2
	rest 2
	note D#, 1
	note E_, 5
	rest 2
.sub2:
	octave 2
	note F_, 8
	rest 4
	note F_, 1
	rest 1
	note F_, 1
	rest 1
	note D#, 8
	rest 4
	note D#, 1
	rest 1
	note D#, 1
	rest 1
	note D_, 8
	rest 4
	note D_, 1
	rest 1
	note D_, 1
	rest 1
	note C_, 8
	note F_, 8
	sound_ret

.sub3:
	octave 1
	note A#, 2
	rest 2
	note A#, 2
	rest 6
	note A#, 1
	rest 1
	note A#, 1
	rest 1
	note A#, 2
	rest 2
	note A#, 6
	rest 6
	note A_, 6
	rest 6
	note A_, 1
	rest 1
	note A_, 1
	rest 1
	note A_, 2
	rest 2
	note A_, 2
	rest 2
	octave 2
	note E_, 1
	note F_, 5
	rest 2
	octave 1
	note G_, 2
	rest 2
	note G_, 2
	rest 6
	note G_, 1
	rest 1
	note G_, 1
	rest 1
	note G_, 2
	rest 2
	note G_, 6
	rest 6
	octave 2
	note D_, 6
	rest 6
	note D_, 1
	rest 1
	note D_, 1
	rest 1
	note D_, 2
	rest 2
	note D_, 2
	rest 2
	note E_, 1
	note F_, 5
	rest 2
.sub4:
	note D#, 2
	rest 2
	note D#, 2
	rest 6
	note D#, 1
	rest 1
	note D#, 1
	rest 1
	note D#, 2
	rest 2
	note D#, 6
	rest 2
	octave 1
	note F_, 4
	octave 2
	note F_, 6
	rest 6
	note F_, 1
	rest 1
	note F_, 1
	rest 1
	note F_, 2
	rest 2
	note F_, 2
	rest 2
	octave 1
	note G_, 1
	note A_, 5
	rest 2
.sub5:
	note A#, 2
	rest 2
	note A#, 2
	rest 6
	note A#, 1
	rest 1
	note A#, 1
	rest 1
	note A#, 2
	rest 2
	note A#, 6
	sound_ret

.sub6:
	rest 2
	note F_, 4
	note A#, 6
	rest 6
	note A#, 1
	rest 1
	note A#, 1
	rest 1
	note A#, 2
	rest 2
	note A#, 2
	rest 2
	octave 2
	note C_, 1
	note D_, 5
	rest 2
	sound_ret

.sub7:
	rest 6
	octave 2
	note F_, 6
	rest 6
	octave 1
	note F_, 4
	note A#, 4
	octave 2
	note D_, 4
	note E_, 1
	note F_, 3
	note D_, 4
	note D#, 2
	rest 2
	note D#, 2
	rest 6
	sound_ret

Music_StaffRoll_Ch3:
	vibrato 11, 1, 3
	sound_call .sub1
	note A_, 7
	note A#, 2
	rest 2
	volume_envelope 1, 0
	octave 4
	note A#, 2
	rest 6
	note A#, 1
	rest 1
	note A#, 1
	rest 1
	note A#, 2
	rest 2
	note A#, 2
	rest 2
	octave 3
	note A#, 2
	octave 4
	note D_, 2
	note F_, 2
	note A_, 2
	note A#, 2
	rest 2
	note A#, 2
	rest 6
	note A#, 1
	rest 1
	note A#, 1
	rest 1
	note A#, 2
	rest 2
	note A#, 2
	rest 2
	note A_, 8
	sound_call .sub2
	sound_call .sub3
	note_type 6, 1, -3
	octave 5
	note F#, 1
	note G_, 1
	note_type 12, 1, -3
	note G_, 9
	rest 2
	note D#, 2
	note D_, 2
	note C_, 8
	rest 2
	octave 4
	note F_, 2
	note A#, 2
	octave 5
	note C_, 2
	note D_, 12
	rest 4
	note_type 6, 1, 4
	octave 3
	note F_, 2
	note A_, 2
	octave 4
	note C_, 2
	note F_, 2
	octave 3
	note A_, 2
	octave 4
	note C_, 2
	note F_, 2
	note A_, 2
	note C_, 2
	note F_, 2
	note A_, 2
	octave 5
	note C_, 2
	note F_, 2
	note C_, 2
	octave 4
	note A#, 2
	octave 5
	note C_, 2
	sound_call .sub2
	note_type 12, 1, -3
	note F_, 10
	rest 2
	note_type 6, 1, -3
	note G#, 1
	note A_, 7
	note A#, 12
	note A_, 4
	note G_, 6
	note F_, 6
	note G_, 4
	note F_, 16
	volume_envelope 1, 4
	octave 4
	note F_, 2
	note A_, 2
	octave 5
	note C_, 2
	note D_, 2
	volume_envelope 1, -3
	note F_, 8
	sound_call .sub4
	sound_call .sub5
	sound_call .sub6
	volume_envelope 1, 4
	octave 4
	note D_, 2
	note F_, 2
	note A#, 2
	octave 5
	note C_, 2
	sound_call .sub5
	note_type 12, 1, 2
	note G_, 6
	note F_, 2
	note D#, 4
	note D_, 4
	note C_, 8
	rest 2
	note D_, 2
	note D#, 2
	note G_, 2
	note F_, 16
	note_type 6, 1, 4
	octave 3
	note F_, 2
	note A#, 2
	octave 4
	note D_, 2
	note F_, 2
	note D_, 2
	note F_, 2
	note A#, 2
	octave 5
	note D_, 2
	note F_, 2
	note D_, 2
	octave 4
	note A#, 2
	note F_, 2
	sound_call .sub5
	sound_call .sub6
	sound_call .sub7
	transpose 0, 2
	sound_call .sub1
	note A_, 3
	octave 6
	note C_, 4
	sound_call .sub2
	sound_call .sub3
	note_type 6, 1, -3
	sound_call .sub4
	sound_call .sub5
	sound_call .sub6
	sound_call .sub7
	transpose 0, 0
	volume_envelope 1, 3
	note C_, 2
	rest 2
	octave 4
	note G_, 2
	rest 6
	octave 5
	note C_, 2
	rest 2
	note E_, 6
	rest 2
	note F#, 1
	note G_, 5
	note A_, 2
	note G_, 12
	volume_envelope 1, 1
	note D_, 2
	note C_, 2
	octave 4
	note B_, 8
	rest 4
	volume_envelope 1, -4
	octave 6
	note C_, 2
	note D_, 2
	note E_, 1
	note F_, 7
	note E_, 8
	note C_, 8
	octave 5
	note G_, 8
	octave 6
	note E_, 1
	note F_, 7
	note E_, 8
	note C_, 8
	note C#, 1
	note D_, 7
.loop1:
	note_type 12, 1, -4
	octave 6
	note C_, 12
	note_type 6, 1, -4
	octave 5
	note A#, 1
	rest 1
	note A#, 1
	rest 1
	note A#, 1
	rest 1
	note B_, 1
	rest 1
	sound_loop 2, .loop1
	octave 6
	note C_, 12
	octave 5
	note E_, 2
	note G_, 2
	octave 6
	note C_, 2
	rest 2
	note C_, 2
	rest 2
	note_type 8, 1, -4
	note C_, 1
	rest 1
	note C_, 1
	rest 1
	octave 5
	note B_, 1
	rest 1
	note_type 6, 1, -4
	note A#, 2
	rest 6
	note G_, 2
	rest 6
	note_type 8, 1, -4
.loop2:
	note A#, 1
	rest 1
	sound_loop 5, .loop2
	note B_, 1
	rest 1
	note_type 6, 1, -4
	octave 6
	note C_, 3
	rest 13
	octave 5
	note C_, 16
	rest 8
	sound_ret

.sub1:
	note_type 6, 1, 8
	octave 5
	note F_, 8
	rest 4
	note F_, 1
	rest 1
	note F_, 1
	rest 1
	sound_loop 3, .sub1
	note F_, 8
	note G_, 1
	sound_ret

.sub2:
	volume_envelope 1, -3
	octave 5
	note D_, 16
	rest 4
	octave 4
	note A#, 4
	octave 5
	note C#, 1
	note D_, 3
	note D#, 4
	sound_ret

.sub3:
	note_type 12, 1, -3
	note C_, 10
	rest 2
	note D_, 2
	note D#, 2
	note F_, 6
	note D#, 2
	note D_, 2
	note D#, 2
	note F_, 2
	note G_, 2
	note F_, 10
	rest 2
	octave 4
	note A#, 4
	sound_ret

.sub4:
	octave 5
	note F#, 1
	note G_, 11
	note F_, 4
	note D#, 6
	note D_, 6
	octave 4
	note A#, 4
	octave 5
	note C_, 16
	volume_envelope 1, 4
	octave 4
	note C_, 2
	note F_, 2
	note A_, 2
	octave 5
	note C_, 2
	volume_envelope 1, -3
	note D_, 4
	note C_, 4
	octave 4
	note A#, 16
	note A#, 16
	volume_envelope 1, 4
	octave 3
	note A#, 2
	octave 4
	note D_, 2
	note F_, 2
	note A#, 2
	note F_, 2
	note A#, 2
	octave 5
	note D_, 2
	note F_, 2
	note A#, 2
	note F_, 2
	note D_, 2
	octave 4
	note A#, 2
	sound_ret

.sub5:
	volume_envelope 1, 2
	octave 5
	note C#, 1
	note D_, 3
	note F_, 4
	sound_ret

.sub6:
	note_type 12, 1, 2
	note G_, 10
	rest 2
	note F_, 2
	note G_, 2
	note F_, 10
	rest 2
	note D_, 2
	note C_, 2
	note D_, 6
	note_type 6, 1, 2
	note E_, 1
	note F_, 1
	note F_, 16
	vibrato 0, 1, 3
	volume_envelope 1, -5
	octave 6
	note D_, 1
	note F_, 1
	note A#, 5
	volume_envelope 2, -5
	note A#, 5
	volume_envelope 3, -5
	note A#, 5
	rest 1
	vibrato 11, 1, 3
	sound_ret

.sub7:
	volume_envelope 1, 4
	octave 4
	note F_, 2
	note A#, 2
	octave 5
	note D_, 2
	note F_, 2
	volume_envelope 1, 2
	note F#, 1
	note G_, 3
	note A_, 4
	note A#, 12
	note A_, 4
	note G_, 8
	note F_, 8
	note E_, 12
	rest 4
	volume_envelope 1, 4
	octave 4
	note C_, 2
	note E_, 2
	note G_, 2
	octave 5
	note C_, 2
	volume_envelope 1, 2
	note D_, 4
	note E_, 4
	note F_, 16
	note F_, 8
	rest 4
	volume_envelope 1, 8
	note F_, 1
	rest 1
	note F_, 1
	rest 1
	note F_, 8
	rest 4
	note F_, 1
	rest 1
	note F_, 1
	rest 1
	note F_, 8
	note C_, 8
	sound_ret

Music_StaffRoll_Ch4:
	toggle_noise 6
	drum_speed 6
.loop1:
	drum_note 7, 4
	drum_note 10, 2
	drum_note 10, 2
	drum_note 3, 2
	drum_note 4, 2
	drum_note 5, 2
	drum_note 6, 2
	sound_loop 3, .loop1
	drum_note 7, 4
	drum_note 10, 2
	drum_note 10, 2
	sound_call .sub1
	drum_note 7, 4
	drum_note 10, 2
	drum_note 10, 2
	sound_call .sub2
	sound_call .sub3
	sound_call .sub2
	sound_call .sub1
.loop2:
	drum_note 7, 4
	drum_note 10, 2
	drum_note 10, 2
	sound_call .sub2
	sound_call .sub3
	sound_call .sub2
	sound_call .sub4
	drum_note 8, 4
	drum_note 10, 2
	drum_note 10, 2
	sound_call .sub2
	sound_call .sub3
	sound_call .sub2
	sound_call .sub4
	drum_note 8, 4
	drum_note 10, 2
	drum_note 10, 2
	sound_call .sub2
	sound_call .sub3
	sound_call .sub2
	sound_call .sub4
	drum_note 8, 4
	drum_note 10, 2
	drum_note 10, 2
	sound_call .sub2
	sound_call .sub3
	drum_note 8, 4
	drum_note 7, 8
	drum_note 8, 4
	sound_call .sub1
	sound_loop 2, .loop2
.loop3:
	drum_note 7, 4
	drum_note 10, 2
	drum_note 10, 2
	sound_call .sub2
	sound_call .sub3
	sound_call .sub2
	sound_call .sub4
	drum_note 8, 4
	drum_note 10, 2
	drum_note 10, 2
	sound_call .sub2
	sound_call .sub3
	drum_note 8, 4
	drum_note 7, 8
	drum_note 8, 4
	sound_call .sub1
	sound_loop 3, .loop3
	drum_note 7, 4
	drum_note 10, 2
	drum_note 10, 2
	sound_call .sub2
	drum_note 3, 2
	drum_note 4, 2
	drum_note 5, 2
	drum_note 6, 2
	drum_note 7, 4
	drum_note 10, 2
	drum_note 10, 2
	sound_call .sub2
	sound_call .sub4
.loop4:
	drum_note 7, 4
	drum_note 10, 2
	drum_note 10, 2
	drum_note 3, 2
	drum_note 4, 2
	drum_note 5, 2
	drum_note 6, 2
	sound_loop 3, .loop4
	drum_note 7, 4
	drum_note 10, 2
	drum_note 10, 2
	sound_call .sub1
.loop5:
	drum_note 7, 4
	drum_note 10, 2
	drum_note 10, 2
	drum_note 3, 2
	drum_note 4, 2
	drum_note 5, 2
	drum_note 6, 2
	sound_loop 3, .loop5
	drum_note 7, 4
	drum_note 10, 2
	drum_note 10, 2
	sound_call .sub1
	drum_note 7, 4
	drum_note 10, 2
	drum_note 10, 2
.loop6:
	sound_call .sub2
	sound_call .sub3
	sound_call .sub2
	sound_call .sub4
	drum_note 8, 4
	drum_note 10, 2
	drum_note 10, 2
	sound_loop 3, .loop6
	sound_call .sub2
	sound_call .sub3
	drum_note 8, 4
	drum_note 7, 4
	rest 4
	drum_note 8, 4
	sound_call .sub1
	drum_note 7, 4
	drum_note 10, 2
	drum_note 10, 2
	sound_call .sub2
	sound_call .sub3
	sound_call .sub2
	sound_call .sub4
	drum_note 8, 4
	drum_note 10, 2
	drum_note 10, 2
	sound_call .sub2
	sound_call .sub3
	drum_note 8, 4
	drum_note 7, 8
	drum_note 8, 4
	sound_call .sub1
	drum_note 7, 4
	drum_note 10, 2
	drum_note 10, 2
	sound_call .sub2
	drum_note 3, 2
	drum_note 4, 2
	drum_note 5, 2
	drum_note 6, 2
	drum_note 7, 4
	drum_note 10, 2
	drum_note 10, 2
	sound_call .sub2
	sound_call .sub4
.loop7:
	drum_note 7, 4
	drum_note 10, 2
	drum_note 10, 2
	drum_note 3, 2
	drum_note 4, 2
	drum_note 5, 2
	drum_note 6, 2
	sound_loop 3, .loop7
	drum_note 7, 4
	drum_note 10, 2
	drum_note 10, 2
	sound_call .sub1
	drum_speed 12
	drum_note 7, 16
	rest 16
	drum_note 7, 12
	drum_note 8, 1
	drum_note 9, 1
	drum_note 10, 1
	drum_note 10, 1
	drum_speed 6
	drum_note 7, 16
	drum_note 10, 1
	drum_note 10, 1
	drum_note 10, 1
	drum_note 10, 1
	drum_note 10, 1
	drum_note 10, 1
	drum_note 9, 1
	drum_note 10, 1
	drum_note 9, 1
	drum_note 10, 1
	drum_note 9, 1
	drum_note 9, 1
	drum_note 9, 1
	drum_note 9, 1
	drum_note 8, 1
	drum_note 8, 1
.loop8:
	drum_note 7, 12
	drum_note 10, 2
	drum_note 10, 2
	drum_note 8, 2
	drum_note 9, 2
	drum_note 10, 2
	drum_note 8, 2
	sound_call .sub1
	sound_loop 2, .loop8
	drum_note 7, 12
	drum_note 10, 2
	drum_note 10, 2
	drum_note 8, 2
	drum_note 9, 2
	drum_note 10, 2
	drum_note 8, 2
	drum_speed 8
	drum_note 8, 2
	drum_note 8, 2
	drum_note 8, 2
	drum_note 7, 6
	drum_note 8, 6
	drum_note 8, 2
	drum_note 8, 2
	drum_note 8, 2
	drum_speed 6
	sound_call .sub1
	drum_note 7, 16
	rest 16
	rest 8
	sound_ret

.sub1:
	drum_note 10, 1
	drum_note 10, 1
	drum_note 10, 1
	drum_note 10, 1
	drum_note 9, 1
	drum_note 10, 1
	drum_note 9, 1
	drum_note 9, 1
	sound_ret

.sub2:
	drum_note 8, 4
	drum_note 10, 2
	drum_note 9, 2
	drum_note 8, 4
	drum_note 8, 4
	sound_ret

.sub3:
	drum_note 10, 4
	drum_note 8, 2
	drum_note 10, 2
	drum_note 8, 4
	drum_note 10, 2
	drum_note 10, 2
	sound_ret

.sub4:
	drum_note 8, 2
	drum_note 10, 2
	drum_note 9, 2
	drum_note 10, 2
	sound_ret
