Music_FireFlower:
	channel_count 4
	channel 1, Music_FireFlower_Ch1
	channel 2, Music_FireFlower_Ch2
	channel 3, Music_FireFlower_Ch3
	channel 4, Music_FireFlower_Ch4

Music_FireFlowerMenu:
	channel_count 4
	channel 1, Music_FireFlowerMenu_Ch1
	channel 2, Music_FireFlowerMenu_Ch2
	channel 3, Music_FireFlowerMenu_Ch3
	channel 4, Music_FireFlowerMenu_Ch4

Music_FireFlower_Ch1:
	tempo 224
	volume 7, 7
	duty_cycle 2
	toggle_perfect_pitch
	note_type 12, 11, 3
	rest 4
	octave 4
	note C_, 8
	octave 3
	note B_, 8
	note E_, 2
	note G_, 2
	note C_, 2
	note G_, 10
Music_FireFlowerMenu_Ch1:
	tempo 224
	volume 7, 7
	duty_cycle 2
	toggle_perfect_pitch
	note_type 12, 11, 3
	rest 16
	rest 10
	octave 3
	note G_, 1
	note F_, 1
	note E_, 1
	note F_, 1
	note E_, 1
	note D_, 1
	note C_, 2
	octave 2
	note G_, 2
	octave 3
	note C_, 2
	note E_, 2
	note D_, 2
	note F_, 2
	note C_, 2
	note E_, 2
	note D_, 2
	octave 2
	note B_, 1
	octave 3
	note C_, 1
	note D_, 2
	note F_, 2
	note G_, 4
	note F_, 4
.mainloop:
	note E_, 2
	note C_, 2
	note E_, 2
	note G_, 2
	note F_, 2
	note C_, 2
	note E_, 2
	note C_, 2
	note D_, 2
	octave 2
	note B_, 1
	octave 3
	note C_, 1
	note D_, 2
	note F_, 2
	note E_, 2
	note F_, 1
	note E_, 1
	note D_, 2
	note G_, 2
	note C_, 2
	note D_, 2
	note E_, 2
	note D_, 2
	note E_, 1
	note D_, 1
	note C_, 2
	note E_, 2
	note G_, 2
	note D_, 4
	note F_, 4
	note G_, 2
	note F_, 2
	note F_, 2
	note D_, 2
	note E_, 2
	note G_, 2
	note C_, 2
	note E_, 1
	note G_, 1
	note F_, 4
	note G_, 2
	note E_, 2
	note F_, 2
	note F_, 2
	note E_, 2
	note E_, 2
	note D_, 2
	note F_, 2
	octave 2
	note B_, 2
	octave 3
	note F_, 2
	note G_, 1
	note F_, 1
	note E_, 2
	note E_, 2
	note G_, 2
	note F_, 2
	note E_, 2
	note D_, 2
	note C_, 2
	note D_, 1
	note C_, 1
	octave 2
	note B_, 1
	octave 3
	note C_, 1
	note D_, 2
	note E_, 2
	note F_, 2
	note E_, 2
	note F_, 2
	note A_, 2
	note G_, 1
	note F_, 1
	note E_, 1
	note D_, 1
	note C_, 2
	octave 2
	note B_, 2
	note A_, 2
	note B_, 2
	octave 3
	note C_, 2
	note C_, 2
	note D_, 1
	note C_, 1
	octave 2
	note B_, 1
	note A_, 1
	octave 3
	note C_, 2
	note E_, 2
	note F_, 1
	note D_, 1
	note E_, 1
	note C_, 1
	note D_, 16
	rest 4
	rest 2
	note G_, 4
	note G_, 8
	note F_, 2
	note E_, 16
	rest 12
	note G_, 2
	note F_, 2
	note E_, 2
	note F_, 2
	note G_, 2
	note F_, 2
	note E_, 2
	note D_, 2
	note E_, 2
	note G_, 2
	note A_, 1
	note F_, 1
	note G_, 1
	note E_, 1
	note F_, 2
	note E_, 1
	note G_, 1
	note A_, 1
	note G_, 1
	note A_, 2
	note B_, 2
	octave 4
	note D_, 2
	note_type 12, 10, 5
	note E_, 8
	note C_, 8
	note F_, 8
	note D_, 4
	note E_, 4
	note G_, 8
	note E_, 4
	note B_, 4
	note E_, 8
	note E_, 8
	note C_, 8
	octave 3
	note B_, 8
	note A_, 8
	note G_, 8
	note A_, 8
	note B_, 8
	note_type 12, 11, 3
	note G_, 4
	note F_, 4
	note E_, 4
	note D_, 4
	octave 4
	note C_, 4
	octave 3
	note B_, 4
	note A_, 4
	note G_, 2
	note B_, 2
	octave 4
	note C_, 4
	octave 3
	note F_, 4
	note G_, 4
	note C_, 4
	note D_, 4
	note E_, 4
	note F_, 4
	note G_, 16
	rest 4
	rest 16
	rest 16
	rest 16
	sound_loop 0, .mainloop

Music_FireFlower_Ch2:
	duty_cycle 2
	note_type 12, 12, 3
	octave 4
	note C_, 2
	note D_, 2
	note E_, 4
	note F_, 2
	note E_, 2
	note D_, 2
	note C_, 2
	octave 3
	note B_, 2
	octave 4
	note D_, 2
	note C_, 4
	note D_, 4
	note C_, 2
	octave 3
	note G_, 2
	note F_, 2
	note G_, 2
Music_FireFlowerMenu_Ch2:
	duty_cycle 2
	note_type 12, 12, 3
	octave 4
	note C_, 2
	octave 3
	note G_, 2
	octave 4
	note C_, 2
	note E_, 2
	note D_, 2
	octave 3
	note G_, 2
	octave 4
	note D_, 2
	note F_, 2
	note E_, 2
	note C_, 1
	note D_, 1
	note E_, 2
	note F_, 2
	note E_, 4
	note D_, 2
	note C_, 1
	note D_, 1
	note E_, 2
	note C_, 2
	note E_, 2
	note G_, 2
	note F_, 2
	note C_, 2
	note E_, 2
	note C_, 2
	note D_, 2
	octave 3
	note G_, 2
	octave 4
	note D_, 2
	note F_, 2
	note E_, 2
	note F_, 1
	note E_, 1
	note D_, 4
.mainloop:
	rest 2
	note C_, 1
	note D_, 1
	note E_, 2
	note F_, 1
	note E_, 1
	note D_, 2
	octave 3
	note B_, 1
	octave 4
	note C_, 1
	note D_, 2
	note E_, 2
	note F_, 2
	note E_, 2
	note D_, 2
	note C_, 2
	octave 3
	note B_, 2
	note A_, 2
	note G_, 2
	note B_, 2
	octave 4
	note G_, 1
	note F_, 1
	note E_, 1
	note D_, 1
	note C_, 2
	octave 3
	note B_, 2
	note A_, 2
	octave 4
	note E_, 2
	octave 3
	note G_, 2
	octave 4
	note E_, 2
	note F_, 2
	note D_, 1
	note E_, 1
	note F_, 2
	note C_, 2
	octave 3
	note B_, 2
	octave 4
	note F_, 2
	note D_, 2
	note F_, 2
	note E_, 2
	note C_, 1
	note D_, 1
	note E_, 2
	note D_, 2
	note C_, 2
	note D_, 2
	note E_, 2
	note C_, 2
	note D_, 1
	note C_, 1
	octave 3
	note B_, 1
	octave 4
	note C_, 1
	note D_, 2
	note E_, 2
	note F_, 8
	note E_, 2
	note E_, 2
	note E_, 1
	note D_, 1
	note C_, 1
	note D_, 1
	note C_, 2
	note C_, 1
	octave 3
	note B_, 1
	note A_, 1
	note G_, 1
	note F_, 1
	note G_, 1
	note A_, 2
	note A_, 2
	octave 4
	note C_, 2
	note C_, 2
	octave 3
	note B_, 2
	octave 4
	note C_, 2
	note D_, 4
	note E_, 2
	note E_, 2
	note E_, 1
	note D_, 1
	note C_, 1
	note D_, 1
	note C_, 2
	note C_, 1
	octave 3
	note B_, 1
	note A_, 1
	note G_, 1
	note F_, 1
	note G_, 1
	note A_, 2
	note A_, 2
	octave 4
	note C_, 2
	note C_, 2
	octave 3
	note B_, 2
	octave 4
	note C_, 2
	note D_, 4
	note C_, 1
	octave 3
	note B_, 1
	note A_, 2
	note G_, 2
	octave 4
	note E_, 2
	octave 3
	note G_, 2
	octave 4
	note E_, 2
	note C_, 2
	note E_, 2
	note F_, 2
	note E_, 2
	note D_, 2
	note C_, 1
	note D_, 1
	octave 3
	note B_, 2
	octave 4
	note C_, 2
	note D_, 4
	note G_, 1
	note E_, 1
	note F_, 1
	note D_, 1
	note E_, 1
	note C_, 1
	note D_, 1
	octave 3
	note B_, 1
	octave 4
	note C_, 4
	note G_, 1
	note E_, 1
	note F_, 1
	note D_, 1
	note E_, 1
	note C_, 1
	note D_, 1
	octave 3
	note B_, 1
	octave 4
	note C_, 2
	note C_, 1
	note D_, 1
	note E_, 2
	note C_, 2
	note F_, 4
	note G_, 1
	note E_, 1
	note F_, 1
	note D_, 1
	note E_, 1
	note C_, 1
	note D_, 1
	octave 3
	note B_, 1
	octave 4
	note C_, 2
	note C_, 1
	note D_, 1
	note E_, 1
	note D_, 1
	note C_, 1
	note D_, 1
	note F_, 2
	note F_, 2
	note E_, 2
	note E_, 2
	note D_, 2
	note E_, 2
	note F_, 4
	note_type 12, 11, 7
	note G_, 8
	note E_, 8
	note A_, 8
	note F_, 8
	note B_, 8
	note G_, 8
	note_type 12, 12, 3
	octave 5
	note C_, 2
	note C_, 2
	octave 4
	note B_, 2
	note B_, 2
	note A_, 1
	note G_, 1
	note A_, 1
	note B_, 2
	note G_, 2
	octave 5
	note C_, 2
	note C_, 1
	note D_, 1
	note C_, 1
	octave 4
	note B_, 1
	note A_, 1
	note G_, 1
	note E_, 1
	note F_, 1
	note G_, 2
	note C_, 2
	note G_, 2
	note A_, 1
	note G_, 1
	note F_, 1
	note G_, 1
	note A_, 2
	note B_, 2
	note A_, 2
	note G_, 2
	note F_, 2
	note E_, 2
	note D_, 1
	note E_, 1
	note F_, 2
	note E_, 1
	note F_, 1
	note G_, 2
	note F_, 1
	note G_, 1
	note A_, 2
	note B_, 2
	note G_, 2
	note G_, 1
	note F_, 1
	note E_, 1
	note D_, 1
	note C_, 2
	octave 3
	note B_, 2
	note A_, 2
	octave 4
	note D_, 2
	octave 3
	note B_, 2
	octave 4
	note D_, 2
	note E_, 8
	note G_, 8
	note E_, 2
	note E_, 2
	note E_, 1
	note D_, 1
	note C_, 1
	note D_, 1
	note C_, 2
	note C_, 1
	octave 3
	note B_, 1
	note A_, 1
	note G_, 1
	note F_, 1
	note G_, 1
	note A_, 2
	note A_, 2
	octave 4
	note C_, 2
	note C_, 2
	octave 3
	note B_, 2
	octave 4
	note C_, 2
	note D_, 4
	note C_, 2
	octave 3
	note G_, 2
	octave 4
	note C_, 2
	note E_, 2
	note D_, 2
	octave 3
	note G_, 2
	octave 4
	note D_, 2
	note F_, 2
	note E_, 2
	note C_, 1
	note D_, 1
	note E_, 2
	note F_, 2
	note E_, 2
	note C_, 2
	note D_, 4
	note E_, 2
	note C_, 2
	note E_, 2
	note G_, 2
	note F_, 2
	note C_, 2
	note E_, 2
	note C_, 2
	note D_, 2
	octave 3
	note G_, 2
	octave 4
	note D_, 2
	note F_, 2
	note E_, 4
	note D_, 4
	sound_loop 0, .mainloop

Music_FireFlower_Ch3:
	note_type 12, 1, 0
	vibrato 8, 2, 6
	rest 4
	rest 16
	rest 16
Music_FireFlowerMenu_Ch3:
	note_type 12, 1, 0
	vibrato 8, 2, 6
	rest 16
	rest 16
	rest 16
	rest 12
	octave 2
	note B_, 1
	octave 3
	note C_, 1
	note D_, 1
	octave 2
	note B_, 1
.mainloop:
	octave 3
	note C_, 2
	octave 2
	note G_, 2
	octave 3
	note C_, 2
	note E_, 2
	note D_, 2
	note F_, 2
	note C_, 2
	note E_, 2
	note D_, 1
	note C_, 1
	octave 2
	note B_, 1
	octave 3
	note C_, 1
	octave 2
	note B_, 2
	octave 3
	note C_, 2
	note D_, 4
	note G_, 4
	rest 16
	rest 16
	note E_, 2
	note C_, 2
	note E_, 2
	note G_, 2
	note F_, 4
	note E_, 4
	note D_, 3
	rest 1
	note D_, 1
	note C_, 1
	octave 2
	note B_, 1
	octave 3
	note C_, 1
	note D_, 4
	note G_, 4
	rest 16
	rest 16
	rest 16
	note F_, 2
	note E_, 2
	note D_, 1
	note C_, 1
	octave 2
	note B_, 1
	octave 3
	note C_, 1
	note D_, 4
	note F_, 1
	note G_, 1
	note A_, 1
	note B_, 1
	octave 4
	note C_, 1
	rest 1
	note C_, 1
	rest 1
	note C_, 1
	octave 3
	note B_, 1
	note A_, 1
	note B_, 1
	octave 4
	note C_, 2
	note D_, 2
	note E_, 2
	note C_, 2
	note D_, 4
	note C_, 4
	octave 3
	note B_, 2
	note A_, 2
	note G_, 2
	note B_, 2
	octave 4
	note C_, 2
	rest 6
	note G_, 1
	note E_, 1
	note F_, 1
	note D_, 1
	note E_, 1
	note C_, 1
	note D_, 1
	octave 3
	note B_, 1
	octave 4
	note C_, 4
	rest 12
	rest 12
	note C_, 2
	octave 3
	note B_, 2
	note A_, 2
	note G_, 2
	note F_, 2
	note G_, 2
	note A_, 4
	note B_, 2
	note G_, 2
	octave 4
	note C_, 1
	note D_, 1
	note E_, 1
	note F_, 1
	note G_, 8
	vibrato 8, 4, 6
	note G_, 4
	vibrato 8, 2, 6
	note D_, 1
	note E_, 1
	note F_, 1
	note G_, 1
	note A_, 8
	vibrato 8, 4, 6
	note A_, 4
	vibrato 8, 2, 6
	note E_, 1
	note F_, 1
	note G_, 1
	note A_, 1
	note B_, 4
	note A_, 2
	note B_, 2
	note G_, 2
	note B_, 2
	octave 5
	note C_, 8
	octave 4
	note B_, 8
	note A_, 8
	note G_, 8
	note F_, 8
	note E_, 8
	note D_, 8
	note G_, 8
	note C_, 1
	rest 1
	note C_, 1
	rest 1
	octave 3
	note B_, 1
	rest 1
	note B_, 1
	rest 1
	note A_, 1
	note G_, 1
	note A_, 1
	note B_, 2
	note G_, 2
	octave 4
	note C_, 1
	rest 1
	note C_, 1
	note D_, 1
	note C_, 1
	octave 3
	note B_, 1
	note A_, 1
	note G_, 1
	note E_, 1
	note F_, 1
	note G_, 2
	note C_, 2
	note G_, 2
	note A_, 1
	note G_, 1
	note F_, 1
	note G_, 1
	note A_, 2
	note B_, 2
	note A_, 2
	note G_, 2
	note F_, 2
	note E_, 2
	note D_, 1
	note E_, 1
	note F_, 2
	note E_, 1
	note F_, 1
	note G_, 2
	note F_, 1
	note G_, 1
	note A_, 2
	note B_, 2
	octave 4
	note D_, 2
	note C_, 8
	note D_, 8
	note E_, 8
	note F_, 8
	note G_, 8
	note F_, 4
	note E_, 4
	note D_, 8
	note E_, 4
	note F_, 4
	sound_loop 0, .mainloop

Music_FireFlower_Ch4:
	drum_speed 12
	rest 4
	rest 16
	rest 16
Music_FireFlowerMenu_Ch4:
	drum_speed 12
	frame_swap
	rest 7
	frame_swap
	rest 8
	frame_swap
	rest 8
	frame_swap
	rest 4
	frame_swap
	rest 4
	frame_swap
	rest 4
	frame_swap
	rest 4
	frame_swap
	rest 4
	frame_swap
	rest 4
	frame_swap
	rest 4
	frame_swap
	rest 4
	frame_swap
	rest 4
	frame_swap
	rest 4
.mainloop:
	frame_swap
	rest 4
	frame_swap
	rest 4
	frame_swap
	rest 4
	frame_swap
	rest 4
	sound_loop 2, .mainloop
.loop1:
	frame_swap
	rest 8
	frame_swap
	rest 8
	sound_loop 2, .loop1
.loop2:
	frame_swap
	rest 4
	frame_swap
	rest 4
	frame_swap
	rest 4
	frame_swap
	rest 4
	sound_loop 2, .loop2
	frame_swap
	rest 8
	frame_swap
	rest 8
	frame_swap
	rest 8
	frame_swap
	rest 4
	frame_swap
	rest 4
	frame_swap
	rest 8
	frame_swap
	rest 8
	frame_swap
	rest 4
	frame_swap
	rest 4
	frame_swap
	rest 4
	frame_swap
	rest 4
	frame_swap
	rest 8
	frame_swap
	rest 8
	frame_swap
	rest 8
	frame_swap
	rest 2
	frame_swap
	rest 2
	frame_swap
	rest 2
	frame_swap
	rest 2
	frame_swap
	rest 4
	frame_swap
	rest 4
.loop3:
	frame_swap
	rest 4
	frame_swap
	rest 4
	frame_swap
	rest 4
	frame_swap
	rest 4
	sound_loop 4, .loop3
	frame_swap
	rest 8
	frame_swap
	rest 8
	frame_swap
	rest 8
	frame_swap
	rest 4
	frame_swap
	rest 4
	frame_swap
	rest 8
	frame_swap
	rest 4
	frame_swap
	rest 4
.loop4:
	frame_swap
	rest 8
	frame_swap
	rest 8
	sound_loop 4, .loop4
.loop5:
	frame_swap
	rest 2
	frame_swap
	rest 2
	frame_swap
	rest 2
	frame_swap
	rest 2
	frame_swap
	rest 2
	frame_swap
	rest 2
	frame_swap
	rest 2
	frame_swap
	rest 2
	sound_loop 4, .loop5
.loop6:
	frame_swap
	rest 8
	frame_swap
	rest 8
	sound_loop 2, .loop6
	frame_swap
	rest 8
	frame_swap
	rest 4
	frame_swap
	rest 4
	frame_swap
	rest 8
	frame_swap
	rest 4
	frame_swap
	rest 4
	sound_loop 0, .mainloop