Music_Mushroom:
	channel_count 4
	channel 1, Music_Mushroom_Ch1
	channel 2, Music_Mushroom_Ch2
	channel 3, Music_Mushroom_Ch3
	channel 4, Music_Mushroom_Ch4

Music_MushroomMenu:
	channel_count 4
	channel 1, Music_MushroomMenu_Ch1
	channel 2, Music_MushroomMenu_Ch2
	channel 3, Music_MushroomMenu_Ch3
	channel 4, Music_MushroomMenu_Ch4

Music_Mushroom_Ch1:
	tempo 146
	volume 7, 7
	duty_cycle 2
	toggle_perfect_pitch
	note_type 8, 11, 2
	octave 3
	note G_, 4
	note B_, 2
	note A_, 4
	note B_, 2
	octave 4
	note C_, 6
	note D_, 2
	note E_, 2
	note D_, 2
	octave 3
	note G_, 2
	octave 4
	note D_, 2
	note C_, 2
	octave 3
	note B_, 2
	note A_, 2
	note B_, 2
	note G_, 6
	note D_, 6
Music_MushroomMenu_Ch1:
	tempo 146
	volume 7, 7
	duty_cycle 2
	toggle_perfect_pitch
	note_type 8, 11, 2
.mainloop:
	octave 3
	note G_, 6
	note F#, 4
	note D_, 2
	note G_, 6
	note A_, 2
	note F#, 2
	note A_, 2
	note G_, 6
	note B_, 4
	note G_, 2
	note A_, 2
	note G_, 2
	note F#, 2
	note E_, 2
	note F#, 2
	note A_, 2
	note G_, 6
	note F#, 4
	note D_, 2
	note G_, 6
	note A_, 2
	note F#, 2
	note A_, 2
	note G_, 6
	note B_, 4
	octave 4
	note D_, 2
	note C_, 2
	octave 3
	note B_, 2
	note A_, 2
	note G_, 2
	note A_, 2
	note B_, 2
	note G_, 4
	note A_, 2
	note B_, 4
	note A_, 2
	octave 4
	note C_, 4
	octave 3
	note A_, 2
	octave 4
	note C_, 2
	octave 3
	note B_, 2
	note A_, 2
	note G_, 4
	note A_, 2
	note B_, 4
	note A_, 2
	octave 4
	note C_, 6
	octave 3
	note B_, 6
	note E_, 4
	note B_, 2
	note A_, 4
	note G_, 2
	note B_, 2
	note A_, 2
	note G_, 2
	note B_, 2
	note A_, 2
	note G_, 2
	note E_, 4
	note B_, 2
	note A_, 4
	note G_, 2
	note B_, 6
	note A_, 6
	note_type 8, 8, 3
	note D_, 6
	note B_, 4
	note G_, 2
	note A_, 2
	note G_, 2
	note A_, 2
	note G_, 4
	note F#, 2
	note D_, 6
	note B_, 4
	note G_, 2
	note A_, 2
	note G_, 2
	note A_, 2
	note B_, 2
	note A_, 2
	note F#, 2
	note_type 8, 9, 3
	note D_, 6
	note B_, 4
	note G_, 2
	note A_, 2
	note B_, 2
	note A_, 2
	note G_, 4
	note F#, 2
	note D_, 6
	note B_, 4
	note G_, 2
	note A_, 2
	note G_, 2
	note F#, 2
	note B_, 2
	octave 4
	note C_, 2
	octave 3
	note B_, 2
	note_type 8, 11, 2
	note A_, 6
	note B_, 6
	note A_, 4
	octave 4
	note D_, 2
	note D_, 6
	octave 3
	note A_, 6
	note E_, 6
	note A_, 4
	octave 4
	note D_, 2
	note D_, 6
	note_type 8, 8, 3
	octave 3
	note D_, 4
	note D_, 2
	note B_, 4
	note G_, 2
	note A_, 2
	note G_, 2
	note A_, 2
	note G_, 4
	note F#, 2
	note D_, 2
	note D_, 2
	note D_, 2
	note B_, 4
	note G_, 2
	note A_, 2
	note B_, 2
	note A_, 2
	note F#, 2
	note G_, 2
	note A_, 2
	note_type 8, 9, 2
	note B_, 2
	note B_, 2
	note B_, 2
	note B_, 2
	note A_, 2
	note G_, 2
	note E_, 2
	note E_, 2
	note E_, 2
	note G_, 4
	note F#, 2
	note B_, 2
	note B_, 2
	note B_, 2
	note B_, 2
	note A_, 2
	note G_, 2
	note E_, 2
	note E_, 2
	note E_, 2
	note B_, 2
	note A_, 2
	note F#, 2
	note_type 8, 7, 5
	note G_, 12
	note A_, 12
	note B_, 16
	rest 6
	note_type 8, 10, 2
	note G_, 2
	note A_, 6
	note G_, 6
	note F#, 6
	note E_, 4
	note F#, 2
	note G_, 6
	note A_, 6
	note B_, 6
	octave 2
	note B_, 12
	note_type 8, 11, 3
	octave 5
	note D_, 12
	note G_, 12
	note D_, 12
	note G_, 12
	octave 4
	note A_, 12
	octave 5
	note E_, 12
	note F#, 12
	note D_, 6
	vibrato 0, 0, 0
	note_type 8, 11, 2
	octave 3
	note G_, 4
	octave 4
	note G_, 2
	note D_, 6
	octave 3
	note B_, 4
	octave 4
	note D_, 2
	note G_, 6
	octave 3
	note G_, 4
	octave 4
	note E_, 2
	note D_, 6
	octave 3
	note G_, 4
	note B_, 2
	octave 4
	note D_, 6
	octave 3
	note F#, 4
	note A_, 2
	octave 4
	note D_, 6
	octave 3
	note G_, 4
	note B_, 2
	octave 4
	note E_, 6
	octave 3
	note A_, 4
	octave 4
	note F#, 2
	note G_, 4
	note D_, 2
	note A_, 6
	octave 3
	note F#, 10
	note B_, 2
	note B_, 10
	note B_, 2
	note B_, 10
	note B_, 2
	note B_, 6
	octave 4
	note D_, 4
	octave 3
	note A_, 2
	note A_, 10
	octave 4
	note E_, 2
	note E_, 10
	note E_, 2
	note E_, 6
	note D_, 2
	note C#, 2
	note D_, 2
	note E_, 2
	note D_, 2
	note C_, 8
	note D_, 12
	note_type 8, 10, 1
	octave 3
	note D_, 2
	note D_, 2
	note D_, 2
	note D_, 6
	note E_, 2
	note E_, 2
	note E_, 2
	note E_, 12
	note_type 8, 11, 2
	note F#, 6
	note C_, 12
	note_type 8, 10, 1
	note D_, 2
	note D_, 2
	note D_, 2
	note D_, 6
	note E_, 2
	note E_, 2
	note E_, 2
	note E_, 12
	note_type 8, 11, 2
	note F#, 6
	note C_, 6
	duty_cycle 1
	note_type 8, 9, 2
	octave 2
	note B_, 2
	octave 3
	note D_, 2
	note G_, 2
	note D_, 2
	octave 2
	note B_, 2
	octave 3
	note D_, 2
	octave 2
	note B_, 2
	octave 3
	note D_, 2
	note G_, 2
	octave 2
	note B_, 2
	octave 3
	note D_, 2
	note G_, 2
	octave 2
	note B_, 2
	octave 3
	note D_, 2
	note G_, 2
	note D_, 2
	octave 2
	note B_, 2
	octave 3
	note D_, 2
	octave 2
	note B_, 2
	octave 3
	note D_, 2
	note G_, 2
	octave 2
	note B_, 2
	octave 3
	note D_, 2
	note E_, 2
	octave 2
	note A_, 2
	octave 3
	note D_, 2
	note F#, 2
	note D_, 2
	octave 2
	note A_, 2
	octave 3
	note D_, 2
	octave 2
	note A_, 2
	octave 3
	note D_, 2
	note F#, 2
	octave 2
	note A_, 2
	octave 3
	note D_, 2
	note F#, 2
	octave 2
	note A_, 2
	octave 3
	note D_, 2
	note F#, 2
	note D_, 2
	octave 2
	note A_, 2
	octave 3
	note D_, 2
	octave 2
	note A_, 2
	octave 3
	note D_, 2
	note F#, 2
	note D_, 2
	octave 2
	note A_, 2
	octave 3
	note D_, 2
	note_type 8, 9, 2
	octave 2
	note B_, 2
	octave 3
	note D_, 2
	note G_, 2
	note D_, 2
	octave 2
	note B_, 2
	octave 3
	note D_, 2
	note D_, 4
	note G_, 2
	note D_, 4
	note C_, 2
	octave 2
	note B_, 2
	octave 3
	note D_, 2
	note G_, 2
	octave 2
	note B_, 2
	octave 3
	note D_, 2
	note G_, 2
	note D_, 4
	note G_, 2
	note D_, 4
	note C_, 2
	note_type 8, 10, 2
	note D_, 6
	note B_, 4
	note G_, 2
	note A_, 2
	note G_, 2
	note A_, 2
	note G_, 4
	note F#, 2
	note D_, 6
	note B_, 4
	note G_, 2
	note A_, 2
	note G_, 2
	note A_, 2
	note B_, 2
	note A_, 2
	note F#, 2
	note_type 8, 11, 2
	note D_, 2
	note D_, 2
	note D_, 2
	note B_, 4
	note G_, 2
	note A_, 2
	note E_, 2
	note F#, 2
	note G_, 4
	note F#, 2
	note G_, 2
	note G_, 2
	note G_, 2
	note B_, 4
	note G_, 2
	note A_, 2
	note G_, 2
	note A_, 2
	note G_, 2
	note A_, 4
	duty_cycle 2
	note_type 8, 11, 2
	sound_loop 0, .mainloop

Music_Mushroom_Ch2:
	duty_cycle 2
	note_type 8, 12, 2
	octave 4
	note D_, 2
	note G_, 2
	note F#, 2
	note G_, 4
	note D_, 2
	note E_, 2
	note F#, 2
	note G_, 2
	note B_, 4
	note A_, 2
	note G_, 4
	note F#, 2
	note E_, 4
	note F#, 2
	note G_, 6
	octave 3
	note G_, 6
Music_MushroomMenu_Ch2:
	duty_cycle 2
	note_type 8, 12, 2
.mainloop:
	octave 4
	note D_, 2
	note D_, 2
	note D_, 2
	note D_, 2
	note C_, 2
	octave 3
	note B_, 2
	octave 4
	note E_, 6
	note F#, 4
	note E_, 2
	note D_, 2
	note G_, 2
	note F#, 2
	note G_, 2
	note F#, 2
	note G_, 2
	note E_, 4
	note C_, 2
	octave 3
	note B_, 2
	octave 4
	note C_, 2
	note C#, 2
	note D_, 2
	note D_, 2
	note D_, 2
	note D_, 2
	note C_, 2
	octave 3
	note B_, 2
	octave 4
	note E_, 6
	note F#, 4
	note E_, 2
	note D_, 2
	note G_, 2
	note F#, 2
	note G_, 2
	note F#, 2
	note G_, 2
	note A_, 4
	note G_, 2
	note F#, 4
	note D_, 2
	note B_, 2
	note A_, 2
	note B_, 2
	octave 5
	note C_, 2
	octave 4
	note B_, 2
	note A_, 2
	note G_, 6
	note E_, 4
	note G_, 1
	note A_, 1
	note B_, 2
	note A_, 2
	note B_, 2
	octave 5
	note C_, 2
	octave 4
	note B_, 2
	note A_, 2
	note G_, 2
	note A_, 2
	note G_, 2
	note E_, 2
	note F#, 2
	note G_, 2
	note A_, 2
	note G#, 2
	note A_, 2
	note B_, 2
	note A_, 2
	note G_, 2
	note F#, 6
	note D_, 4
	note E_, 1
	note F#, 1
	note A_, 2
	note G#, 2
	note A_, 2
	note E_, 2
	note F#, 2
	note E_, 2
	note D_, 2
	note E_, 2
	note F#, 2
	note D_, 2
	note E_, 2
	note F#, 2
	vibrato 2, 2, 2
	note_type 8, 11, 3
	note G_, 4
	note F#, 2
	note G_, 4
	note D_, 2
	note E_, 2
	note D_, 2
	note C_, 2
	octave 3
	note B_, 2
	octave 4
	note C_, 2
	note D_, 2
	note G_, 4
	note F#, 2
	note G_, 4
	note D_, 2
	note E_, 2
	note F#, 2
	note G_, 2
	note F#, 2
	note E_, 2
	note D_, 2
	note G_, 4
	note F#, 2
	note G_, 4
	note D_, 2
	note E_, 2
	note D_, 2
	note C_, 2
	octave 3
	note B_, 2
	octave 4
	note C_, 2
	note D_, 2
	note G_, 4
	note F#, 2
	note G_, 4
	note D_, 2
	note C_, 2
	note G_, 2
	note F#, 2
	note G_, 6
	vibrato 0, 0, 0
	note_type 8, 12, 2
	note A_, 2
	note G#, 2
	note A_, 2
	note G_, 4
	note E_, 2
	note D_, 4
	octave 5
	note D_, 2
	note D_, 4
	octave 4
	note F#, 1
	note G_, 1
	note A_, 2
	note G#, 2
	note A_, 2
	note G_, 4
	note E_, 2
	note D_, 4
	octave 5
	note D_, 2
	note D_, 6
	vibrato 2, 2, 2
	note_type 8, 11, 3
	octave 4
	note G_, 4
	note F#, 2
	note G_, 4
	note D_, 2
	note E_, 2
	note D_, 2
	note C_, 2
	octave 3
	note B_, 2
	octave 4
	note C_, 2
	note D_, 2
	note G_, 4
	note F#, 2
	note G_, 4
	note D_, 2
	note E_, 2
	note F#, 2
	note G_, 2
	note F#, 2
	note E_, 2
	note D_, 2
	note G_, 4
	note F#, 2
	note G_, 4
	note D_, 2
	note E_, 2
	note D_, 2
	note C_, 2
	octave 3
	note B_, 2
	octave 4
	note C_, 2
	note D_, 2
	note G_, 4
	note F#, 2
	note G_, 4
	note D_, 2
	note E_, 6
	note G_, 4
	note F#, 2
	vibrato 0, 0, 0
	note_type 8, 12, 2
	octave 3
	note D_, 2
	note D_, 2
	note D_, 2
	note A_, 2
	note G_, 2
	note F#, 2
	note E_, 2
	note E_, 2
	note E_, 2
	octave 4
	note C_, 2
	octave 3
	note B_, 2
	note A_, 2
	note F#, 2
	note F#, 2
	note F#, 2
	octave 4
	note E_, 2
	note D_, 2
	note C_, 2
	octave 3
	note B_, 2
	octave 4
	note C_, 2
	note D_, 2
	note E_, 4
	note D_, 2
	note F#, 2
	note E_, 2
	note F#, 2
	note E_, 2
	note F#, 2
	note E_, 2
	note F#, 4
	note E_, 2
	note D_, 4
	note F#, 2
	note G_, 2
	note F#, 2
	note G_, 2
	note F#, 2
	note G_, 2
	note F#, 2
	note G_, 6
	octave 3
	note G_, 6
	duty_cycle 3
	note_type 8, 11, 2
	octave 4
	note D_, 2
	note C#, 2
	note D_, 2
	note E_, 2
	note D_, 2
	note C_, 2
	octave 3
	note B_, 6
	octave 4
	note D_, 6
	note D_, 2
	note C#, 2
	note D_, 2
	note E_, 4
	note C_, 2
	octave 3
	note B_, 6
	note G_, 6
	note A_, 2
	note G#, 2
	note A_, 2
	octave 4
	note D_, 4
	note C_, 2
	octave 3
	note B_, 2
	note A_, 2
	note B_, 2
	octave 4
	note E_, 4
	note D_, 2
	note F#, 2
	note F_, 2
	note F#, 2
	note G_, 2
	note F#, 2
	note E_, 2
	note D_, 6
	note F#, 4
	duty_cycle 2
	note_type 8, 12, 2
	note B_, 1
	octave 5
	note C_, 1
	note D_, 2
	note C#, 2
	note D_, 2
	note E_, 2
	note D_, 2
	note C_, 2
	octave 4
	note B_, 6
	octave 5
	note D_, 6
	note D_, 2
	note C#, 2
	note D_, 2
	note E_, 4
	note C_, 2
	octave 4
	note B_, 6
	note G_, 6
	note A_, 2
	note G#, 2
	note A_, 2
	octave 5
	note D_, 4
	note C_, 2
	octave 4
	note B_, 2
	note A_, 2
	note B_, 2
	octave 5
	note E_, 4
	note D_, 2
	note F#, 2
	note F_, 2
	note F#, 2
	note G_, 2
	note F#, 2
	note E_, 2
	note A_, 6
	duty_cycle 3
	note_type 8, 12, 3
	octave 4
	note D_, 2
	note E_, 2
	note F#, 2
	note G_, 4
	note F#, 2
	note G_, 4
	note A_, 2
	note B_, 6
	note A_, 4
	note G_, 2
	note B_, 6
	note A_, 4
	note G_, 2
	note A_, 4
	note D_, 2
	note D_, 4
	note A_, 1
	note B_, 1
	octave 5
	note C_, 6
	octave 4
	note B_, 4
	note A_, 2
	octave 5
	note C_, 6
	octave 4
	note B_, 4
	note A_, 2
	note_type 8, 12, 5
	note G_, 12
	note F#, 12
	duty_cycle 2
	note_type 8, 12, 2
	note D_, 2
	note D_, 2
	note D_, 2
	note D_, 6
	note E_, 2
	note E_, 2
	note E_, 2
	note E_, 6
	note F#, 2
	note F#, 2
	note F#, 2
	note F#, 2
	note E_, 2
	note D_, 2
	note C_, 6
	note E_, 6
	note D_, 2
	note D_, 2
	note D_, 2
	note D_, 6
	note E_, 2
	note E_, 2
	note E_, 2
	note E_, 6
	note F#, 2
	note F#, 2
	note F#, 2
	note F#, 2
	note E_, 2
	note D_, 2
	note C_, 4
	octave 3
	note B_, 2
	note A_, 4
	note G_, 2
	duty_cycle 1
	vibrato 2, 2, 4
	note_type 8, 12, 4
	octave 4
	note G_, 2
	note F#, 2
	note G_, 2
	note A_, 2
	note G_, 2
	note F#, 2
	note E_, 6
	note D_, 4
	note E_, 1
	note F#, 1
	note G_, 2
	note F#, 2
	note G_, 2
	note A_, 2
	note G_, 2
	note F#, 2
	note E_, 2
	note F#, 2
	note E_, 2
	note D_, 2
	note E_, 2
	note F_, 2
	note F#, 2
	note F_, 2
	note F#, 2
	note G_, 2
	note F#, 2
	note E_, 2
	note D_, 6
	note F#, 6
	note F#, 2
	note F_, 2
	note F#, 2
	note G_, 2
	note F#, 2
	note E_, 2
	note D_, 2
	note E_, 2
	note F#, 2
	note D_, 2
	note E_, 2
	note F#, 2
	vibrato 2, 2, 2
	note_type 8, 11, 3
	note G_, 4
	note F#, 2
	note G_, 4
	note D_, 2
	note E_, 2
	note D_, 2
	note C_, 2
	octave 3
	note B_, 2
	octave 4
	note C_, 2
	note D_, 2
	note G_, 4
	note F#, 2
	note G_, 4
	note D_, 2
	note E_, 2
	note F#, 2
	note G_, 2
	note F#, 2
	note E_, 2
	note D_, 2
	note G_, 4
	note F#, 2
	note G_, 4
	note D_, 2
	note E_, 2
	note D_, 2
	note C_, 2
	octave 3
	note B_, 2
	octave 4
	note C_, 2
	note D_, 2
	note G_, 4
	note F#, 2
	note G_, 4
	note D_, 2
	note E_, 2
	note F#, 2
	note G_, 2
	note F#, 2
	note E_, 2
	note D_, 2
	note G_, 4
	note F#, 2
	note G_, 4
	note D_, 2
	note E_, 2
	note D_, 2
	note C_, 2
	octave 3
	note B_, 2
	octave 4
	note C_, 2
	note D_, 2
	note G_, 4
	note F#, 2
	note G_, 4
	note D_, 2
	note C_, 2
	note G_, 2
	note F#, 2
	note G_, 4
	duty_cycle 2
	note_type 8, 12, 2
	vibrato 0, 0, 0
	octave 3
	note B_, 1
	octave 4
	note C_, 1
	sound_loop 0, .mainloop

Music_Mushroom_Ch3:
	note_type 8, 1, -4
	rest 16
	rest 6
	octave 4
	note C_, 2
	note D_, 2
	rest 4
	note C_, 2
	rest 4
	octave 3
	note B_, 2
	rest 4
	note B_, 2
	rest 4
Music_MushroomMenu_Ch3:
	note_type 8, 1, -4
.mainloop:
	octave 4
	note D_, 2
	rest 4
	octave 3
	note B_, 2
	rest 4
	octave 4
	note E_, 2
	rest 4
	note C_, 4
	note E_, 2
	note D_, 2
	rest 4
	octave 3
	note B_, 2
	rest 4
	octave 4
	note C_, 2
	rest 4
	note C#, 2
	rest 4
	note D_, 2
	rest 4
	octave 3
	note B_, 2
	rest 4
	octave 4
	note E_, 2
	rest 4
	note C_, 4
	note E_, 2
	note D_, 2
	rest 4
	note G_, 2
	note F#, 2
	note D_, 2
	note E_, 2
	rest 4
	note D_, 2
	rest 2
	note C_, 2
	octave 3
	note B_, 2
	rest 4
	octave 4
	note D#, 2
	rest 4
	note E_, 2
	rest 4
	note G_, 2
	rest 4
	octave 3
	note B_, 2
	rest 4
	octave 4
	note D#, 2
	rest 4
	note E_, 2
	rest 4
	note G_, 2
	rest 2
	octave 3
	note B_, 2
	note A_, 2
	rest 4
	octave 4
	note C#, 2
	rest 4
	note D_, 2
	rest 4
	note F#, 2
	rest 4
	octave 3
	note A_, 2
	rest 4
	octave 4
	note C#, 2
	rest 4
	note D_, 2
	rest 4
	note C_, 2
	rest 2
	note E_, 2
	octave 3
	note G_, 2
	rest 16
	rest 6
	note G_, 2
	rest 16
	rest 6
	note G_, 2
	rest 4
	note B_, 2
	rest 4
	octave 4
	note C_, 2
	rest 4
	octave 3
	note B_, 2
	rest 2
	note A_, 2
	note G_, 2
	rest 4
	note B_, 2
	rest 4
	octave 4
	note C_, 2
	rest 4
	octave 3
	note B_, 2
	rest 2
	octave 4
	note C#, 2
	note D_, 2
	rest 4
	octave 3
	note A_, 2
	rest 4
	octave 4
	note D_, 2
	rest 2
	octave 3
	note D_, 2
	note D_, 2
	rest 4
	octave 4
	note D_, 2
	rest 4
	octave 3
	note A_, 2
	rest 4
	octave 4
	note D_, 2
	rest 2
	octave 3
	note D_, 2
	note D_, 2
	rest 4
	note G_, 2
	rest 4
	note B_, 2
	rest 4
	octave 4
	note C_, 2
	rest 4
	octave 3
	note B_, 2
	rest 2
	note A_, 2
	note G_, 2
	rest 4
	note B_, 2
	rest 4
	octave 4
	note C_, 2
	rest 4
	octave 3
	note B_, 2
	rest 2
	note A_, 2
	note G_, 2
	rest 4
	note B_, 2
	rest 4
	octave 4
	note C_, 2
	rest 4
	octave 3
	note B_, 2
	rest 2
	note A_, 2
	note G_, 2
	rest 4
	note B_, 2
	rest 4
	octave 4
	note C_, 2
	rest 4
	octave 3
	note B_, 2
	rest 2
	note A_, 2
	note B_, 2
	rest 10
	octave 4
	note C_, 2
	rest 10
	note D_, 2
	rest 16
	rest 4
	note C_, 2
	note D_, 2
	rest 4
	note C_, 2
	rest 4
	octave 3
	note B_, 2
	rest 4
	note A_, 2
	rest 4
	note G_, 2
	rest 4
	octave 4
	note D_, 2
	rest 4
	note G_, 2
	rest 4
	octave 3
	note G_, 2
	rest 8
	octave 4
	note D_, 2
	octave 3
	note B_, 2
	rest 8
	octave 4
	note G_, 2
	note D_, 2
	rest 8
	note D_, 2
	octave 3
	note B_, 2
	rest 8
	octave 4
	note E_, 2
	note D_, 2
	rest 8
	note D_, 2
	octave 3
	note A_, 2
	rest 8
	octave 4
	note E_, 2
	note D_, 2
	rest 8
	note F#, 2
	note G_, 2
	rest 4
	note A_, 2
	rest 4
	note F#, 2
	rest 4
	note D_, 2
	rest 4
	octave 3
	note B_, 2
	rest 4
	octave 4
	note G_, 2
	rest 4
	note D_, 2
	rest 4
	note D_, 2
	rest 4
	octave 3
	note B_, 2
	rest 4
	octave 4
	note E_, 2
	rest 4
	note D_, 2
	rest 4
	note D_, 2
	rest 4
	octave 3
	note A_, 2
	rest 4
	octave 4
	note E_, 2
	rest 4
	note D_, 2
	rest 4
	note F#, 2
	rest 4
	note G_, 2
	rest 4
	note A_, 2
	rest 4
	note D_, 2
	rest 4
	note G_, 2
	rest 4
	note D_, 2
	rest 4
	note G_, 2
	rest 4
	note D_, 2
	rest 4
	note G_, 2
	rest 4
	note D_, 2
	rest 4
	note A_, 2
	rest 2
	note D_, 2
	note D_, 2
	rest 4
	octave 5
	note C_, 2
	rest 4
	octave 4
	note E_, 2
	rest 4
	octave 5
	note C_, 2
	rest 4
	octave 4
	note E_, 2
	rest 4
	note A_, 2
	rest 4
	note D_, 2
	rest 4
	note A_, 2
	rest 4
	note D_, 2
	rest 4
	octave 5
	note F#, 2
	rest 10
	note G_, 2
	rest 10
	note A_, 2
	rest 10
	note F#, 2
	rest 4
	note A_, 2
	rest 4
	note F#, 2
	rest 10
	note G_, 2
	rest 10
	note A_, 2
	rest 10
	note F#, 2
	rest 4
	note A_, 2
	rest 16
	rest 16
	rest 16
	rest 16
	rest 16
	rest 16
	rest 4
	octave 3
	note G_, 2
	rest 16
	rest 6
	note G_, 2
	rest 16
	rest 4
	note A_, 2
	note G_, 2
	rest 4
	note B_, 2
	rest 4
	octave 4
	note C_, 2
	rest 4
	octave 3
	note B_, 2
	rest 2
	note A_, 2
	note G_, 2
	rest 4
	note B_, 2
	rest 4
	octave 4
	note C_, 2
	rest 4
	octave 3
	note B_, 2
	rest 2
	note A_, 2
	note G_, 2
	rest 4
	note B_, 2
	rest 4
	octave 4
	note C_, 2
	rest 4
	octave 3
	note B_, 2
	rest 2
	note A_, 2
	note G_, 2
	rest 4
	note B_, 2
	rest 4
	octave 4
	note C_, 2
	note D_, 2
	rest 2
	note D_, 2
	rest 2
	note E_, 2
	sound_loop 0, .mainloop


Music_Mushroom_Ch4:
	drum_speed 8
	rest 16
	rest 8
	rest 8
	rest 16
Music_MushroomMenu_Ch4:
	drum_speed 8
	frame_swap
	rest 5
	frame_swap
	rest 6
	frame_swap
	rest 6
	frame_swap
	rest 6
.mainloop:
	frame_swap
	rest 6
	frame_swap
	rest 6
	frame_swap
	rest 6
	frame_swap
	rest 6
	sound_loop 7, .mainloop
.loop1:
	frame_swap
	rest 12
	frame_swap
	rest 12
	sound_loop 2, .loop1
.loop2:
	frame_swap
	rest 6
	frame_swap
	rest 6
	frame_swap
	rest 6
	frame_swap
	rest 6
	sound_loop 2, .loop2
.loop3:
	frame_swap
	rest 6
	frame_swap
	rest 6
	frame_swap
	rest 4
	frame_swap
	rest 1
	frame_swap
	rest 1
	frame_swap
	rest 1
	frame_swap
	rest 5
	drum_speed 8
	sound_loop 2, .loop3
.loop4:
	frame_swap
	rest 6
	frame_swap
	rest 6
	frame_swap
	rest 6
	frame_swap
	rest 6
	sound_loop 4, .loop4
	frame_swap
	rest 12
	frame_swap
	rest 12
	frame_swap
	rest 12
	rest 10
	frame_swap
	rest 2
.loop5:
	frame_swap
	rest 6
	frame_swap
	rest 6
	frame_swap
	rest 6
	frame_swap
	rest 6
	sound_loop 2, .loop5
.loop6:
	frame_swap
	rest 12
	frame_swap
	rest 12
	sound_loop 4, .loop6
.loop7:
	frame_swap
	rest 6
	frame_swap
	rest 6
	frame_swap
	rest 6
	frame_swap
	rest 6
	sound_loop 8, .loop7
.loop8:
	frame_swap
	rest 12
	frame_swap
	rest 12
	frame_swap
	rest 12
	frame_swap
	rest 6
	frame_swap
	rest 6
	sound_loop 2, .loop8
.loop9:
	frame_swap
	rest 6
	frame_swap
	rest 6
	frame_swap
	rest 6
	frame_swap
	rest 6
	sound_loop 4, .loop9
.loop10:
	frame_swap
	rest 12
	frame_swap
	rest 12
	sound_loop 2, .loop10
.loop11:
	frame_swap
	rest 6
	frame_swap
	rest 6
	frame_swap
	rest 6
	frame_swap
	rest 6
	sound_loop 4, .loop11
	frame_swap
	rest 6
	frame_swap
	rest 6
	frame_swap
	rest 6
	frame_swap
	rest 6
	sound_loop 0, .mainloop
