Music_Starman:
	channel_count 4
	channel 1, Music_Starman_Ch1
	channel 2, Music_Starman_Ch2
	channel 3, Music_Starman_Ch3
	channel 4, Music_Starman_Ch4

Music_StarmanMenu:
	channel_count 4
	channel 1, Music_StarmanMenu_Ch1
	channel 2, Music_StarmanMenu_Ch2
	channel 3, Music_StarmanMenu_Ch3
	channel 4, Music_StarmanMenu_Ch4

Music_Starman_Ch1:
	tempo 128
	volume 7, 7
	duty_cycle 2
	vibrato 7, 2, 3
	toggle_perfect_pitch
	note_type 12, 11, 2
	octave 4
	note E_, 1
	note F#, 1
	note E_, 1
	note F#, 1
	note E_, 1
	note F#, 1
	note E_, 1
	note F#, 1
	note E_, 2
	octave 3
	note B_, 2
	octave 4
	note C#, 2
	note D#, 2
	octave 3
	note B_, 3
	octave 4
	note C#, 1
	note D#, 2
	octave 3
	note B_, 2
	octave 4
	note E_, 4
	note E_, 4
Music_StarmanMenu_Ch1:
	tempo 128
	volume 7, 7
	duty_cycle 2
	vibrato 7, 2, 3
	toggle_perfect_pitch
.mainloop:
	note_type 12, 11, 2
	octave 3
	note G#, 2
	note G#, 4
	note B_, 2
	octave 4
	note E_, 4
	note D#, 3
	note C#, 1
	octave 3
	note B_, 2
	note F#, 4
	octave 4
	note A_, 2
	note F#, 2
	octave 5
	note E_, 2
	note D#, 4
	octave 3
	note B_, 2
	note B_, 4
	note F#, 2
	note A_, 4
	note F#, 3
	note A_, 1
	note G#, 4
	note A_, 4
	note B_, 2
	note A_, 2
	note G#, 2
	note F#, 2
	note G#, 2
	note E_, 4
	note B_, 2
	octave 4
	note E_, 4
	note D#, 3
	note C#, 1
	octave 3
	note B_, 2
	note F#, 4
	octave 4
	note A_, 2
	note F#, 2
	octave 5
	note E_, 2
	note D#, 4
	octave 3
	note B_, 2
	note B_, 4
	note F#, 2
	note A_, 4
	note F#, 3
	note A_, 1
	note B_, 4
	note A_, 4
	note G#, 4
	note G#, 4
	rest 2
	note G#, 4
	note G#, 4
	note G#, 4
	note G#, 2
	rest 2
	note A_, 4
	note A_, 4
	note A_, 1
	note A_, 3
	note A_, 2
	rest 2
	note A_, 4
	note A_, 2
	note B_, 2
	note A_, 2
	note G#, 2
	note F#, 4
	note G#, 1
	note G#, 3
	note A_, 2
	note B_, 2
	octave 4
	note C#, 2
	note C#, 2
	octave 3
	note B_, 2
	note E_, 4
	octave 4
	note C#, 6
	note C#, 4
	note C#, 2
	octave 3
	note D#, 4
	octave 4
	note D#, 6
	note D#, 4
	note D#, 2
	rest 2
	note E_, 4
	note E_, 3
	note D#, 1
	note E_, 2
	note F#, 2
	note E_, 2
	note F#, 16
	note_type 12, 9, 2
	rest 2
	octave 3
	note E_, 4
	note E_, 4
	note E_, 4
	note E_, 2
	note F#, 2
	note F#, 4
	note F#, 4
	note F#, 4
	note F#, 2
	note G#, 2
	note G#, 4
	note G#, 4
	note G#, 4
	note G#, 2
	note F#, 16
	note E_, 2
	note E_, 4
	note E_, 4
	note E_, 4
	note E_, 2
	note F#, 2
	note F#, 4
	note F#, 4
	note F#, 4
	note F#, 2
	note G#, 2
	note G#, 4
	note G#, 4
	note G#, 4
	note G#, 2
	note B_, 2
	note B_, 4
	octave 4
	note D#, 6
	note_type 6, 11, 3
	octave 3
	note B_, 1
	octave 4
	note C#, 1
	note D_, 1
	note D#, 1
	note E_, 1
	note F_, 1
	note F#, 1
	note G_, 1
	note_type 12, 11, 3
	note G#, 8
	note F#, 8
	note E_, 8
	note F#, 8
	note G#, 4
	note F#, 4
	note G#, 4
	note F#, 4
	note E_, 4
	note F#, 4
	note G#, 4
	note F#, 4
	note G#, 4
	note F#, 4
	note G#, 4
	note F#, 4
	note E_, 4
	note F#, 4
	note G#, 4
	note F#, 4
	note E_, 2
	octave 3
	note B_, 4
	octave 4
	note E_, 2
	note G#, 4
	note F#, 4
	note E_, 2
	note F#, 4
	note E_, 2
	note D#, 4
	note E_, 4
	note_type 12, 11, 5
	octave 3
	note A_, 8
	note E_, 8
	octave 4
	note D#, 8
	octave 3
	note F#, 8
	note_type 12, 8, 3
	rest 16
	rest 16
	rest 16
	rest 16
	rest 2
	note B_, 6
	note G#, 4
	note F#, 4
	rest 2
	note A_, 6
	note F#, 4
	note A_, 4
	rest 2
	note G#, 6
	note E_, 4
	note F#, 4
	rest 2
	note F#, 6
	note F#, 4
	note G#, 4
	note_type 12, 11, 3
	rest 16
	rest 16
	rest 16
	rest 16
	rest 2
	note B_, 6
	note B_, 4
	note B_, 4
	rest 2
	octave 4
	note C#, 6
	note C#, 4
	note C#, 4
	rest 2
	note E_, 6
	note E_, 4
	note E_, 4
	note D#, 6
	note D#, 2
	note D#, 4
	note D#, 4
	octave 3
	note B_, 2
	octave 4
	note D#, 2
	note C#, 2
	octave 3
	note B_, 2
	octave 4
	note D#, 2
	note C#, 2
	note D#, 2
	note E_, 2
	note E_, 2
	note D#, 2
	note C#, 2
	note D#, 2
	note E_, 2
	note D#, 2
	note C#, 2
	note D#, 2
	note F#, 2
	note E_, 2
	note D#, 2
	note E_, 2
	note F#, 2
	note E_, 2
	note F#, 2
	note G#, 2
	note B_, 2
	note A_, 2
	note G#, 2
	note F#, 4
	note G#, 2
	note G#, 4
	rest 8
	octave 3
	note E_, 4
	note D#, 4
	note C#, 4
	octave 2
	note B_, 4
	note A_, 4
	note G#, 4
	octave 3
	note E_, 4
	note D#, 4
	note C#, 4
	octave 2
	note B_, 4
	note A_, 4
	note G#, 4
	note F#, 4
	note D#, 4
	sound_loop 0, .mainloop

Music_Starman_Ch2:
	duty_cycle 2
	vibrato 6, 2, 4
	note_type 12, 12, 2
	octave 4
	note B_, 6
	octave 5
	note C#, 2
	octave 4
	note B_, 2
	note A_, 2
	note G#, 2
	note F#, 2
	note E_, 2
	note F#, 2
	note G#, 2
	note F#, 2
	note B_, 4
	note B_, 4
Music_StarmanMenu_Ch2:
	duty_cycle 2
	vibrato 6, 2, 4
	note_type 12, 12, 2
.mainloop:
	note_type 12, 12, 2
	octave 4
	note E_, 2
	octave 3
	note B_, 4
	octave 4
	note E_, 2
	note G#, 4
	note F#, 3
	note E_, 1
	note D#, 2
	octave 3
	note B_, 4
	octave 5
	note C#, 2
	octave 4
	note B_, 2
	octave 5
	note G#, 2
	note F#, 4
	octave 4
	note D#, 2
	note F#, 4
	octave 3
	note B_, 2
	octave 4
	note C#, 4
	note D#, 3
	note F#, 1
	note E_, 6
	note F#, 2
	note G#, 8
	note E_, 2
	octave 3
	note B_, 4
	octave 4
	note E_, 2
	note G#, 4
	note F#, 3
	note E_, 1
	note D#, 2
	octave 3
	note B_, 4
	octave 5
	note C#, 2
	octave 4
	note B_, 2
	octave 5
	note G#, 2
	note F#, 4
	octave 4
	note D#, 2
	note F#, 4
	octave 3
	note B_, 2
	octave 4
	note C#, 4
	note D#, 3
	note F#, 1
	note E_, 6
	octave 3
	note B_, 2
	octave 4
	note E_, 2
	duty_cycle 1
	note_type 12, 12, 3
	octave 2
	note B_, 2
	octave 3
	note C#, 2
	note D#, 2
	note E_, 6
	note D#, 2
	note C#, 4
	note E_, 4
	note D#, 6
	note E_, 2
	note F#, 8
	note D#, 4
	note F#, 4
	note D#, 2
	octave 2
	note B_, 2
	octave 3
	note C#, 2
	note D#, 2
	note E_, 6
	note F#, 2
	note G#, 8
	note A_, 4
	note C#, 3
	note E_, 1
	note A_, 8
	note G#, 4
	octave 2
	note B_, 3
	octave 3
	note E_, 1
	note G#, 8
	note F#, 3
	note F_, 1
	note F#, 2
	note G#, 2
	note A_, 2
	note G#, 2
	note A_, 2
	octave 4
	note C#, 2
	octave 3
	note B_, 4
	duty_cycle 2
	note_type 6, 11, 1
	note B_, 2
	note A_, 1
	note G#, 1
	note F#, 1
	note E_, 1
	note D#, 1
	note C#, 1
	octave 2
	note B_, 8
	note_type 12, 10, 2
	octave 3
	note B_, 3
	note A_, 1
	note G#, 6
	note G#, 4
	note G#, 4
	note G#, 2
	note A_, 6
	note A_, 4
	note A_, 2
	note B_, 2
	note A_, 2
	note B_, 2
	note B_, 4
	note B_, 4
	note B_, 4
	note B_, 2
	octave 4
	note D#, 16
	rest 2
	octave 3
	note G#, 4
	note G#, 4
	note G#, 2
	note A_, 2
	note G#, 2
	rest 2
	note A_, 4
	note A_, 4
	note A_, 2
	note B_, 2
	note A_, 2
	rest 2
	note B_, 4
	note B_, 4
	note B_, 2
	octave 4
	note C#, 2
	octave 3
	note B_, 2
	octave 4
	note D#, 2
	note D#, 2
	note F#, 2
	note F#, 10
	note_type 12, 10, 3
	octave 5
	note E_, 4
	note E_, 2
	octave 4
	note B_, 2
	octave 5
	note D#, 4
	note D#, 2
	octave 4
	note B_, 2
	octave 5
	note C#, 4
	note C#, 2
	octave 4
	note B_, 2
	octave 5
	note D#, 4
	note D#, 2
	octave 4
	note B_, 2
	octave 5
	note E_, 4
	note E_, 2
	octave 4
	note B_, 2
	octave 5
	note D#, 4
	note D#, 2
	octave 4
	note B_, 2
	octave 5
	note C#, 4
	note C#, 2
	octave 4
	note B_, 2
	octave 5
	note D#, 4
	note D#, 2
	octave 4
	note B_, 2
	octave 5
	note E_, 4
	note E_, 2
	octave 4
	note B_, 2
	octave 5
	note D#, 4
	note D#, 2
	octave 4
	note B_, 2
	octave 5
	note C#, 4
	note C#, 2
	octave 4
	note B_, 2
	octave 5
	note D#, 4
	note D#, 2
	octave 4
	note B_, 2
	octave 5
	note E_, 4
	note E_, 2
	octave 4
	note B_, 2
	octave 5
	note D#, 4
	note D#, 2
	octave 4
	note B_, 2
	octave 5
	note C#, 4
	note C#, 2
	octave 4
	note B_, 2
	octave 5
	note D#, 4
	note D#, 2
	octave 4
	note B_, 2
	note_type 12, 12, 5
	note C#, 8
	note C#, 8
	octave 3
	note B_, 8
	note B_, 8
	note_type 12, 12, 3
	octave 4
	note E_, 6
	note D#, 2
	note C#, 2
	octave 3
	note B_, 2
	octave 4
	note C#, 2
	octave 3
	note A_, 2
	octave 4
	note D#, 6
	note C#, 2
	octave 3
	note B_, 2
	octave 4
	note C#, 2
	note D#, 2
	note F#, 2
	note E_, 2
	note D#, 2
	note C#, 2
	octave 3
	note B_, 2
	note A_, 2
	note G#, 2
	note A_, 2
	octave 4
	note C#, 2
	octave 3
	note B_, 4
	octave 4
	note C#, 4
	note D#, 2
	note C#, 2
	note D#, 2
	octave 3
	note B_, 2
	octave 4
	note E_, 6
	note D#, 2
	note C#, 2
	octave 3
	note B_, 2
	octave 4
	note C#, 2
	octave 3
	note A_, 2
	octave 4
	note D#, 6
	note C#, 2
	octave 3
	note B_, 2
	octave 4
	note C#, 2
	note D#, 2
	note F#, 2
	note E_, 2
	note D#, 2
	note C#, 2
	octave 3
	note B_, 2
	note A_, 2
	note G#, 2
	note A_, 2
	octave 4
	note C#, 2
	octave 3
	note B_, 4
	octave 4
	note C#, 4
	note D#, 2
	note C#, 2
	note D#, 2
	octave 3
	note B_, 2
	octave 4
	note E_, 6
	note D#, 2
	note C#, 2
	octave 3
	note B_, 2
	octave 4
	note C#, 2
	octave 3
	note A_, 2
	octave 4
	note D#, 6
	note C#, 2
	octave 3
	note B_, 2
	octave 4
	note C#, 2
	note D#, 2
	note F#, 2
	note E_, 2
	note D#, 2
	note C#, 2
	octave 3
	note B_, 2
	note A_, 2
	note G#, 2
	note A_, 2
	octave 4
	note C#, 2
	note G#, 4
	note F#, 4
	note G#, 2
	note F#, 2
	note E_, 2
	note D#, 2
	rest 2
	note G#, 6
	note G#, 4
	note G#, 4
	rest 2
	note A_, 6
	note A_, 4
	note A_, 4
	rest 2
	note B_, 6
	note B_, 4
	note B_, 4
	note F#, 6
	note F#, 2
	note A_, 4
	octave 5
	note C#, 4
	octave 4
	note G#, 6
	note G#, 6
	note G#, 4
	note A_, 6
	note A_, 6
	note A_, 4
	note B_, 6
	note B_, 6
	note B_, 4
	octave 5
	note D#, 2
	note C#, 2
	note D#, 2
	note F#, 4
	octave 4
	note B_, 2
	octave 5
	note E_, 2
	octave 4
	note C#, 1
	note D#, 1
	note E_, 4
	note D#, 4
	note C#, 4
	octave 3
	note B_, 4
	note A_, 4
	note G#, 4
	note F#, 4
	note E_, 4
	octave 4
	note E_, 4
	note D#, 4
	note C#, 4
	octave 3
	note B_, 4
	note A_, 4
	note G#, 4
	note F#, 4
	note B_, 4
	sound_loop 0, .mainloop

Music_Starman_Ch3:
	note_type 12, 1, 0
	rest 16
	rest 10
	octave 3
	note B_, 1
	rest 1
	octave 4
	note C#, 1
	rest 1
	note D#, 1
	rest 1
Music_StarmanMenu_Ch3:
	note_type 12, 1, 0
.mainloop:
	octave 4
	note E_, 1
	rest 1
	note E_, 1
	rest 1
	octave 3
	note B_, 1
	rest 1
	octave 4
	note G#, 1
	rest 1
	note E_, 1
	rest 1
	note B_, 1
	rest 1
	octave 3
	note B_, 1
	rest 1
	octave 4
	note F#, 1
	rest 1
	note D#, 1
	rest 1
	octave 3
	note B_, 1
	rest 5
	pitch_slide 1, 2, B_
	note B_, 1
	rest 3
	pitch_slide 1, 2, B_
	note B_, 1
	rest 3
	octave 4
	note D#, 1
	rest 1
	note F#, 1
	rest 1
	octave 3
	note B_, 1
	rest 1
	octave 4
	note D#, 1
	rest 1
	note C#, 1
	rest 1
	note D#, 1
	rest 1
	note D#, 1
	rest 1
	octave 3
	note B_, 1
	rest 1
	octave 4
	note E_, 1
	rest 1
	note E_, 1
	rest 1
	octave 3
	note B_, 1
	rest 1
	octave 4
	note E_, 1
	note D#, 1
	note E_, 1
	rest 1
	note F#, 1
	rest 1
	octave 3
	note B_, 1
	rest 1
	octave 4
	note D#, 1
	rest 1
	note E_, 1
	rest 1
	octave 3
	note B_, 1
	rest 1
	note B_, 1
	rest 1
	octave 4
	note G#, 1
	rest 1
	note E_, 1
	rest 1
	note B_, 1
	rest 1
	note E_, 1
	note F_, 1
	note F#, 1
	note E_, 1
	note D#, 1
	rest 1
	note D#, 1
	rest 5
	octave 3
	pitch_slide 1, 2, B_
	note B_, 1
	rest 3
	pitch_slide 1, 2, B_
	note B_, 1
	rest 3
	octave 4
	note D#, 1
	rest 1
	note F#, 1
	rest 1
	octave 3
	note B_, 1
	rest 1
	octave 4
	note D#, 1
	rest 1
	note C#, 1
	rest 1
	note D#, 1
	rest 3
	note D#, 1
	rest 1
	note E_, 1
	rest 3
	octave 3
	note B_, 1
	rest 3
	octave 4
	note E_, 1
	rest 3
	note E_, 1
	rest 3
	octave 3
	note G#, 1
	rest 1
	note B_, 1
	rest 1
	note G#, 1
	rest 1
	note B_, 1
	rest 1
	note G#, 1
	rest 1
	note B_, 1
	rest 1
	note G#, 1
	rest 1
	note B_, 1
	rest 1
	note A_, 1
	rest 1
	octave 4
	note C#, 1
	rest 1
	octave 3
	note A_, 1
	note G#, 1
	note F#, 1
	note G#, 1
	note A_, 1
	rest 1
	octave 4
	note C#, 1
	rest 1
	octave 3
	note A_, 1
	rest 1
	octave 4
	note C#, 1
	rest 1
	octave 3
	note A_, 1
	rest 1
	octave 4
	note C#, 1
	rest 1
	octave 3
	note A_, 1
	rest 1
	octave 4
	note C#, 1
	rest 1
	octave 3
	note A_, 1
	rest 1
	note F#, 1
	rest 1
	note F#, 1
	rest 1
	note A_, 1
	rest 1
	note G#, 1
	rest 1
	note B_, 1
	rest 1
	note G#, 1
	rest 1
	note B_, 1
	rest 1
	note G#, 1
	note A_, 1
	note B_, 1
	note A_, 1
	note G#, 1
	rest 1
	note B_, 1
	rest 7
	note A_, 1
	octave 4
	note C#, 1
	octave 3
	note A_, 1
	rest 1
	octave 4
	note E_, 1
	rest 1
	octave 3
	note A_, 1
	rest 1
	octave 4
	note E_, 1
	rest 7
	octave 3
	note G#, 1
	note B_, 1
	octave 4
	note D#, 1
	rest 1
	note B_, 1
	rest 1
	note D#, 1
	rest 1
	note B_, 1
	rest 1
	octave 3
	note A_, 1
	rest 1
	octave 4
	note C#, 1
	rest 1
	octave 3
	note A_, 1
	rest 1
	octave 4
	note C#, 1
	rest 1
	octave 3
	note A_, 1
	rest 1
	octave 4
	note C#, 1
	rest 1
	octave 3
	note A_, 1
	rest 1
	octave 4
	note C#, 1
	rest 1
	note D#, 1
	rest 15
	note_type 12, 1, -3
	octave 5
	note E_, 1
	rest 1
	octave 4
	note B_, 1
	rest 3
	octave 5
	note E_, 1
	rest 1
	note G#, 1
	rest 1
	note A_, 1
	rest 3
	note G#, 1
	rest 1
	note F#, 1
	rest 1
	note C#, 1
	rest 3
	note F#, 1
	rest 1
	note A_, 1
	rest 1
	note B_, 1
	rest 3
	note A_, 1
	rest 1
	note G#, 1
	rest 1
	note A_, 1
	rest 3
	note B_, 1
	rest 1
	octave 6
	note C#, 1
	rest 1
	octave 5
	note B_, 1
	rest 3
	octave 6
	note C#, 1
	rest 1
	octave 5
	note A_, 1
	rest 1
	note G#, 1
	rest 1
	note F#, 1
	rest 1
	note E_, 1
	rest 1
	note D#, 1
	rest 1
	note E_, 1
	rest 1
	note F#, 1
	rest 1
	note D#, 1
	rest 1
	note E_, 1
	rest 1
	octave 4
	note B_, 1
	rest 3
	octave 5
	note E_, 1
	rest 1
	note G#, 1
	rest 1
	note A_, 1
	rest 3
	note G#, 1
	rest 1
	note F#, 1
	rest 1
	note C#, 1
	rest 3
	note F#, 1
	rest 1
	note A_, 1
	rest 1
	note B_, 1
	rest 3
	note A_, 1
	rest 1
	note G#, 1
	rest 1
	note A_, 1
	rest 3
	note B_, 1
	rest 1
	octave 6
	note C#, 1
	rest 1
	octave 5
	note B_, 1
	rest 3
	octave 6
	note C#, 1
	rest 1
	note D#, 1
	rest 1
	note C#, 1
	rest 1
	note D#, 1
	rest 1
	octave 5
	note B_, 1
	rest 9
	note_type 12, 1, 0
	octave 4
	note G#, 8
	note B_, 8
	note A_, 8
	octave 5
	note D#, 8
	octave 4
	note G#, 8
	note B_, 8
	note A_, 8
	octave 5
	note D#, 8
	octave 4
	note G#, 4
	note B_, 4
	note E_, 4
	note B_, 4
	note A_, 2
	note G#, 2
	note F#, 2
	note E_, 2
	note D#, 2
	note E_, 2
	note F#, 2
	note D#, 2
	note G#, 2
	note F#, 2
	note E_, 2
	note G#, 2
	note B_, 2
	note A_, 2
	note G#, 2
	note F#, 2
	note E_, 2
	note F#, 2
	note G#, 2
	note A_, 2
	note B_, 2
	note A_, 2
	note G#, 2
	note F#, 2
	rest 4
	octave 3
	note E_, 1
	note F#, 1
	note G#, 1
	note A_, 1
	note B_, 1
	octave 4
	note C#, 1
	note D_, 1
	note D#, 1
	note E_, 1
	rest 7
	octave 3
	note F#, 1
	note G#, 1
	note A_, 1
	note B_, 1
	octave 4
	note C#, 1
	note D#, 1
	note E_, 1
	note F_, 1
	note F#, 1
	rest 5
	note G#, 4
	rest 2
	note G#, 4
	note E_, 4
	rest 2
	note F#, 4
	rest 2
	note F#, 4
	note D#, 4
	rest 2
	note E_, 4
	rest 2
	note E_, 4
	note C#, 4
	rest 2
	note D#, 4
	rest 2
	note D#, 4
	note F#, 4
	rest 2
	note G#, 4
	rest 2
	note E_, 4
	note E_, 4
	rest 2
	note F#, 4
	rest 2
	note D#, 4
	note F#, 4
	rest 2
	note E_, 4
	rest 2
	note C#, 4
	note E_, 4
	rest 2
	note D#, 4
	rest 2
	note D#, 4
	note D#, 4
	note E_, 2
	note G#, 4
	note B_, 2
	note G#, 4
	note E_, 4
	note D#, 2
	note F#, 4
	note A_, 2
	note F#, 4
	note D#, 4
	note C#, 2
	note E_, 4
	note G#, 2
	note E_, 4
	note C#, 4
	note D#, 2
	note A_, 4
	octave 5
	note C#, 2
	octave 4
	note B_, 4
	note A_, 4
	note E_, 2
	octave 3
	note B_, 4
	octave 4
	note E_, 2
	note G#, 4
	note F#, 3
	note E_, 1
	note F#, 2
	note C#, 4
	note F#, 2
	note A_, 4
	note G#, 3
	note F#, 1
	note G#, 2
	note A_, 4
	note B_, 2
	octave 5
	note C#, 2
	octave 4
	note B_, 4
	octave 5
	note C#, 2
	octave 4
	note C#, 2
	note D#, 4
	note E_, 2
	note F#, 4
	note D#, 4
	note E_, 2
	octave 3
	note B_, 4
	octave 4
	note E_, 2
	note G#, 4
	note F#, 3
	note E_, 1
	note F#, 2
	note C#, 4
	note F#, 2
	note A_, 4
	note G#, 3
	note F#, 1
	note G#, 2
	note A_, 4
	note B_, 2
	octave 5
	note C#, 2
	octave 4
	note B_, 4
	octave 5
	note C#, 2
	note D#, 2
	note C#, 2
	note D#, 2
	octave 4
	note B_, 2
	rest 2
	octave 5
	note E_, 1
	rest 1
	note E_, 1
	rest 16
	rest 3
	octave 3
	note E_, 4
	note D#, 4
	note C#, 4
	octave 2
	note B_, 4
	octave 4
	note G#, 4
	note F#, 4
	note E_, 4
	note D#, 4
	note C#, 4
	octave 3
	note B_, 4
	rest 2
	note B_, 1
	rest 1
	octave 4
	note C#, 1
	rest 1
	note D#, 1
	rest 1
	sound_loop 0, .mainloop

Music_Starman_Ch4:
	drum_speed 12
	rest 16
	rest 16
Music_StarmanMenu_Ch4:
	drum_speed 12
	frame_swap
	rest 1
	frame_swap
	rest 2
	frame_swap
	rest 2
	frame_swap
	rest 2
	frame_swap
	rest 2
	frame_swap
	rest 2
	frame_swap
	rest 2
	frame_swap
	rest 2
.mainloop:
	frame_swap
	rest 2
	frame_swap
	rest 2
	rest 2
	drum_speed 6
	frame_swap
	rest 1
	frame_swap
	rest 3
	frame_swap
	rest 1
	frame_swap
	rest 3
	frame_swap
	rest 1
	frame_swap
	rest 3
	frame_swap
	rest 1
	frame_swap
	rest 3
	drum_speed 12
	rest 2
.loop1:
	frame_swap
	rest 2
	frame_swap
	rest 2
	frame_swap
	rest 2
	frame_swap
	rest 2
	frame_swap
	rest 2
	frame_swap
	rest 2
	frame_swap
	rest 2
	frame_swap
	rest 2
	sound_loop 2, .loop1
	frame_swap
	rest 2
	frame_swap
	rest 2
	frame_swap
	rest 2
	frame_swap
	rest 2
	frame_swap
	rest 2
	frame_swap
	rest 2
	frame_swap
	rest 2
	frame_swap
	rest 2
	frame_swap
	rest 2
	frame_swap
	rest 2
	rest 2
	drum_speed 6
	frame_swap
	rest 1
	frame_swap
	rest 3
	frame_swap
	rest 1
	frame_swap
	rest 3
	frame_swap
	rest 1
	frame_swap
	rest 3
	frame_swap
	rest 1
	frame_swap
	rest 3
	drum_speed 12
	rest 2
	frame_swap
	rest 2
	frame_swap
	rest 2
	frame_swap
	rest 2
	frame_swap
	rest 2
	frame_swap
	rest 2
	frame_swap
	rest 2
	frame_swap
	rest 2
	frame_swap
	rest 2
	frame_swap
	rest 4
	frame_swap
	rest 4
	frame_swap
	rest 4
	frame_swap
	rest 2
	frame_swap
	rest 2
.loop2:
	frame_swap
	rest 2
	frame_swap
	rest 2
	frame_swap
	rest 2
	frame_swap
	rest 2
	frame_swap
	rest 2
	frame_swap
	rest 2
	frame_swap
	rest 2
	frame_swap
	rest 2
	sound_loop 4, .loop2
.loop3:
	frame_swap
	rest 8
	frame_swap
	rest 2
	frame_swap
	rest 2
	frame_swap
	rest 2
	frame_swap
	rest 2
	sound_loop 2, .loop3
	frame_swap
	rest 2
	frame_swap
	rest 2
	frame_swap
	rest 2
	frame_swap
	rest 2
	frame_swap
	rest 2
	frame_swap
	rest 2
	frame_swap
	rest 2
	frame_swap
	rest 2
	frame_swap
	rest 16
.loop4:
	frame_swap
	rest 4
	frame_swap
	rest 4
	frame_swap
	rest 4
	frame_swap
	rest 4
	sound_loop 3, .loop4
	frame_swap
	rest 16
.loop5:
	frame_swap
	rest 4
	frame_swap
	rest 4
	frame_swap
	rest 4
	frame_swap
	rest 4
	sound_loop 3, .loop5
	frame_swap
	rest 2
	frame_swap
	rest 2
	frame_swap
	rest 2
	frame_swap
	rest 2
	rest 8
.loop6:
	frame_swap
	rest 4
	frame_swap
	rest 4
	frame_swap
	rest 4
	frame_swap
	rest 4
	sound_loop 2, .loop6
.loop7:
	frame_swap
	rest 2
	frame_swap
	rest 2
	frame_swap
	rest 2
	frame_swap
	rest 2
	frame_swap
	rest 2
	frame_swap
	rest 2
	frame_swap
	rest 2
	frame_swap
	rest 2
	sound_loop 6, .loop7
.loop8:
	frame_swap
	rest 4
	frame_swap
	rest 4
	frame_swap
	rest 4
	frame_swap
	rest 4
	sound_loop 2, .loop8
.loop9:
	frame_swap
	rest 4
	frame_swap
	rest 4
	frame_swap
	rest 4
	frame_swap
	rest 4
	sound_loop 2, .loop9
.loop10:
	frame_swap
	rest 2
	frame_swap
	rest 2
	frame_swap
	rest 2
	frame_swap
	rest 2
	frame_swap
	rest 2
	frame_swap
	rest 2
	frame_swap
	rest 2
	frame_swap
	rest 2
	sound_loop 2, .loop10
.loop11:
	frame_swap
	rest 4
	frame_swap
	rest 4
	frame_swap
	rest 4
	frame_swap
	rest 4
	sound_loop 2, .loop11
.loop12:
	frame_swap
	rest 2
	frame_swap
	rest 2
	frame_swap
	rest 2
	frame_swap
	rest 2
	frame_swap
	rest 2
	frame_swap
	rest 2
	frame_swap
	rest 2
	frame_swap
	rest 2
	sound_loop 2, .loop12
.loop13:
	frame_swap
	rest 4
	frame_swap
	rest 4
	frame_swap
	rest 4
	frame_swap
	rest 4
	sound_loop 2, .loop13
.loop14:
	frame_swap
	rest 2
	frame_swap
	rest 2
	frame_swap
	rest 2
	frame_swap
	rest 2
	frame_swap
	rest 2
	frame_swap
	rest 2
	frame_swap
	rest 2
	frame_swap
	rest 2
	sound_loop 2, .loop14
.loop15:
	frame_swap
	rest 2
	frame_swap
	rest 2
	frame_swap
	rest 2
	frame_swap
	rest 2
	frame_swap
	rest 2
	frame_swap
	rest 2
	frame_swap
	rest 2
	frame_swap
	rest 2
	sound_loop 7, .loop15
	frame_swap
	rest 2
	frame_swap
	rest 2
	frame_swap
	rest 2
	frame_swap
	rest 4
	frame_swap
	rest 2
	frame_swap
	rest 4
.loop16:
	frame_swap
	rest 4
	frame_swap
	rest 4
	frame_swap
	rest 4
	frame_swap
	rest 4
	sound_loop 3, .loop16
	frame_swap
	rest 4
	frame_swap
	rest 4
	frame_swap
	rest 4
	rest 1
	frame_swap
	rest 1
	frame_swap
	rest 1
	frame_swap
	rest 1
	frame_swap
	rest 2
	frame_swap
	rest 2
	frame_swap
	rest 2
	frame_swap
	rest 2
	frame_swap
	rest 2
	frame_swap
	rest 2
	frame_swap
	rest 2
	frame_swap
	rest 2
	sound_loop 0, .mainloop
